<?xml version="1.0" encoding="UTF-8" standalone="no"?>
<!-- Created with Inkscape (http://www.inkscape.org/) -->

<svg
   xmlns:dc="http://purl.org/dc/elements/1.1/"
   xmlns:cc="http://creativecommons.org/ns#"
   xmlns:rdf="http://www.w3.org/1999/02/22-rdf-syntax-ns#"
   xmlns:svg="http://www.w3.org/2000/svg"
   xmlns="http://www.w3.org/2000/svg"
   xmlns:xlink="http://www.w3.org/1999/xlink"
   xmlns:sodipodi="http://sodipodi.sourceforge.net/DTD/sodipodi-0.dtd"
   xmlns:inkscape="http://www.inkscape.org/namespaces/inkscape"
   width="600"
   height="400"
   id="svg2"
   version="1.1"
   inkscape:version="0.91 r13725"
   sodipodi:docname="pdxbyte.svg"
   inkscape:export-filename="/storage/scratch/graphics/pdxbyte/pdxbyte.png"
   inkscape:export-xdpi="90"
   inkscape:export-ydpi="90">
  <defs
     id="defs4">
    <inkscape:path-effect
       effect="envelope"
       id="path-effect3328"
       is_visible="true"
       yy="true"
       xx="false"
       bendpath1="M 152.6906,320.93521 657.6782,357.3007"
       bendpath2="m 657.6782,357.3007 0,193.82957"
       bendpath3="m 144.60938,551.13027 513.06882,0"
       bendpath4="m 144.60938,357.3007 0,193.82957"
       bendpath1-nodetypes="cc" />
    <inkscape:path-effect
       effect="envelope"
       id="path-effect3218"
       is_visible="true"
       yy="true"
       xx="true"
       bendpath1="m 142.50938,359.7007 513.06882,0"
       bendpath2="m 655.5782,359.7007 0,193.82957"
       bendpath3="m 142.50938,553.53027 513.06882,0"
       bendpath4="m 142.50938,359.7007 0,193.82957" />
    <linearGradient
       id="linearGradient4603">
      <stop
         id="stop4605"
         offset="0"
         style="stop-color:#1f7081;stop-opacity:1;" />
      <stop
         id="stop4607"
         offset="1"
         style="stop-color:#bbefbb;stop-opacity:1;" />
    </linearGradient>
    <inkscape:perspective
       sodipodi:type="inkscape:persp3d"
       inkscape:vp_x="0 : 526.18109 : 1"
       inkscape:vp_y="0 : 1000 : 0"
       inkscape:vp_z="744.09448 : 526.18109 : 1"
       inkscape:persp3d-origin="372.04724 : 350.78739 : 1"
       id="perspective4359" />
    <linearGradient
       id="linearGradient3755">
      <stop
         style="stop-color:#889208;stop-opacity:1;"
         offset="0"
         id="stop3757" />
      <stop
         style="stop-color:#e1ffe1;stop-opacity:1;"
         offset="1"
         id="stop3759" />
    </linearGradient>
    <filter
       y="-0.2"
       height="1.4"
       inkscape:label="Rough and dilate"
       inkscape:menu="Distort"
       inkscape:menu-tooltip="Create a turbulent contour around"
       id="filter3872"
       style="color-interpolation-filters:sRGB">
      <feMorphology
         radius="7"
         operator="dilate"
         result="result8"
         in="SourceGraphic"
         id="feMorphology3874" />
      <feComposite
         in2="result8"
         result="result10"
         in="SourceGraphic"
         operator="arithmetic"
         k1="0.5"
         k3="0.5"
         id="feComposite3876"
         k2="0"
         k4="0" />
      <feTurbulence
         result="result11"
         type="fractalNoise"
         numOctaves="3"
         baseFrequency="0.07"
         id="feTurbulence3878" />
      <feDisplacementMap
         result="result12"
         in2="result11"
         in="result10"
         xChannelSelector="R"
         scale="10"
         id="feDisplacementMap3880"
         yChannelSelector="A" />
      <feComposite
         operator="arithmetic"
         result="result13"
         in="SourceGraphic"
         in2="result12"
         k1="0.25"
         k2="0.25"
         k3="0.75"
         id="feComposite3882"
         k4="0" />
    </filter>
    <linearGradient
       id="linearGradient3755-5">
      <stop
         style="stop-color:#008000;stop-opacity:1;"
         offset="0"
         id="stop3757-2" />
      <stop
         style="stop-color:#bde9bd;stop-opacity:1;"
         offset="1"
         id="stop3759-0" />
    </linearGradient>
    <filter
       y="-0.2"
       height="1.4"
       inkscape:label="Rough and dilate"
       inkscape:menu="Distort"
       inkscape:menu-tooltip="Create a turbulent contour around"
       id="filter3872-6"
       style="color-interpolation-filters:sRGB">
      <feMorphology
         radius="7"
         operator="dilate"
         result="result8"
         in="SourceGraphic"
         id="feMorphology3874-6" />
      <feComposite
         k4="0"
         k2="0"
         in2="result8"
         result="result10"
         in="SourceGraphic"
         operator="arithmetic"
         k1="0.5"
         k3="0.5"
         id="feComposite3876-6" />
      <feTurbulence
         result="result11"
         type="fractalNoise"
         numOctaves="3"
         baseFrequency="0.07"
         id="feTurbulence3878-0" />
      <feDisplacementMap
         yChannelSelector="A"
         result="result12"
         in2="result11"
         in="result10"
         xChannelSelector="R"
         scale="10"
         id="feDisplacementMap3880-0" />
      <feComposite
         k4="0"
         operator="arithmetic"
         result="result13"
         in="SourceGraphic"
         in2="result12"
         k1="0.25"
         k2="0.25"
         k3="0.75"
         id="feComposite3882-6" />
    </filter>
    <linearGradient
       inkscape:collect="always"
       xlink:href="#linearGradient3755-5-9"
       id="linearGradient3761-9-2"
       x1="158.85713"
       y1="258.07648"
       x2="655.42859"
       y2="600.93359"
       gradientUnits="userSpaceOnUse"
       gradientTransform="matrix(0.87972872,0,0,1,14.68401,1.4285714)" />
    <linearGradient
       inkscape:collect="always"
       id="linearGradient3755-5-9">
      <stop
         style="stop-color:#008000;stop-opacity:1;"
         offset="0"
         id="stop3757-2-2" />
      <stop
         style="stop-color:#008000;stop-opacity:0;"
         offset="1"
         id="stop3759-0-8" />
    </linearGradient>
    <filter
       y="-0.2"
       height="1.4"
       inkscape:label="Rough and dilate"
       inkscape:menu="Distort"
       inkscape:menu-tooltip="Create a turbulent contour around"
       id="filter3872-6-2"
       style="color-interpolation-filters:sRGB">
      <feMorphology
         radius="7"
         operator="dilate"
         result="result8"
         in="SourceGraphic"
         id="feMorphology3874-6-1" />
      <feComposite
         k4="0"
         k2="0"
         in2="result8"
         result="result10"
         in="SourceGraphic"
         operator="arithmetic"
         k1="0.5"
         k3="0.5"
         id="feComposite3876-6-2" />
      <feTurbulence
         result="result11"
         type="fractalNoise"
         numOctaves="3"
         baseFrequency="0.07"
         id="feTurbulence3878-0-2" />
      <feDisplacementMap
         yChannelSelector="A"
         result="result12"
         in2="result11"
         in="result10"
         xChannelSelector="R"
         scale="10"
         id="feDisplacementMap3880-0-9" />
      <feComposite
         k4="0"
         operator="arithmetic"
         result="result13"
         in="SourceGraphic"
         in2="result12"
         k1="0.25"
         k2="0.25"
         k3="0.75"
         id="feComposite3882-6-8" />
    </filter>
    <linearGradient
       inkscape:collect="always"
       xlink:href="#linearGradient3755-5"
       id="linearGradient4539"
       gradientUnits="userSpaceOnUse"
       gradientTransform="matrix(0.87972872,0,0,1,14.68401,1.4285714)"
       x1="158.85713"
       y1="258.07648"
       x2="655.42859"
       y2="600.93359" />
    <linearGradient
       inkscape:collect="always"
       xlink:href="#linearGradient3755"
       id="linearGradient4541"
       gradientUnits="userSpaceOnUse"
       gradientTransform="matrix(0.87972872,0,0,1,14.68401,1.4285714)"
       x1="158.85713"
       y1="258.07648"
       x2="655.42859"
       y2="600.93359" />
    <linearGradient
       inkscape:collect="always"
       xlink:href="#linearGradient4603"
       id="linearGradient4609"
       gradientUnits="userSpaceOnUse"
       gradientTransform="matrix(0.87972872,0,0,1,14.68401,1.4285714)"
       x1="158.85713"
       y1="258.07648"
       x2="655.42859"
       y2="600.93359" />
    <linearGradient
       inkscape:collect="always"
       xlink:href="#linearGradient3755-5"
       id="linearGradient4678"
       gradientUnits="userSpaceOnUse"
       gradientTransform="matrix(0.87972872,0,0,1,14.68401,1.4285714)"
       x1="158.85713"
       y1="258.07648"
       x2="655.42859"
       y2="600.93359" />
    <linearGradient
       inkscape:collect="always"
       xlink:href="#linearGradient3755-5"
       id="linearGradient4000"
       gradientUnits="userSpaceOnUse"
       gradientTransform="matrix(0.87972872,0,0,1,14.68401,1.4285714)"
       x1="158.85713"
       y1="258.07648"
       x2="655.42859"
       y2="600.93359" />
    <linearGradient
       inkscape:collect="always"
       xlink:href="#linearGradient4603"
       id="linearGradient4002"
       gradientUnits="userSpaceOnUse"
       gradientTransform="matrix(0.87972872,0,0,1,14.68401,1.4285714)"
       x1="158.85713"
       y1="258.07648"
       x2="655.42859"
       y2="600.93359" />
    <linearGradient
       inkscape:collect="always"
       xlink:href="#linearGradient3755"
       id="linearGradient4115"
       gradientUnits="userSpaceOnUse"
       gradientTransform="matrix(0.87972872,0,0,1,14.68401,1.4285714)"
       x1="158.85713"
       y1="258.07648"
       x2="655.42859"
       y2="600.93359" />
    <linearGradient
       inkscape:collect="always"
       xlink:href="#linearGradient3755"
       id="linearGradient4205"
       gradientUnits="userSpaceOnUse"
       gradientTransform="matrix(0.87972872,0,0,1,14.68401,1.4285714)"
       x1="784.67712"
       y1="395.16089"
       x2="-94.870239"
       y2="178.01358" />
    <linearGradient
       inkscape:collect="always"
       xlink:href="#linearGradient4603"
       id="linearGradient4209"
       gradientUnits="userSpaceOnUse"
       gradientTransform="matrix(0.87972872,0,0,1,14.68401,1.4285714)"
       x1="782.34509"
       y1="385.98975"
       x2="-74.257866"
       y2="182.30833" />
    <linearGradient
       inkscape:collect="always"
       xlink:href="#linearGradient3755"
       id="linearGradient3160"
       gradientUnits="userSpaceOnUse"
       gradientTransform="matrix(0.87972872,0,0,1,14.68401,1.4285714)"
       x1="784.67712"
       y1="395.16089"
       x2="-94.870239"
       y2="178.01358" />
    <linearGradient
       inkscape:collect="always"
       xlink:href="#linearGradient3755-5"
       id="linearGradient3162"
       gradientUnits="userSpaceOnUse"
       gradientTransform="matrix(0.87972872,0,0,1,14.68401,1.4285714)"
       x1="784.63458"
       y1="388.32959"
       x2="-89.10955"
       y2="183.83096" />
    <linearGradient
       inkscape:collect="always"
       xlink:href="#linearGradient3755"
       id="linearGradient3978"
       gradientUnits="userSpaceOnUse"
       gradientTransform="matrix(0.87972872,0,0,1,14.68401,1.4285714)"
       x1="784.67712"
       y1="395.16089"
       x2="-94.870239"
       y2="178.01358" />
    <linearGradient
       inkscape:collect="always"
       xlink:href="#linearGradient3755-5"
       id="linearGradient3980"
       gradientUnits="userSpaceOnUse"
       gradientTransform="matrix(0.87972872,0,0,1,14.68401,1.4285714)"
       x1="784.63458"
       y1="388.32959"
       x2="-89.10955"
       y2="183.83096" />
    <filter
       style="color-interpolation-filters:sRGB"
       y="-0.2"
       height="1.4"
       inkscape:label="Rough and dilate"
       inkscape:menu="Distort"
       inkscape:menu-tooltip="Create a turbulent contour around"
       id="filter3872-6-4">
      <feMorphology
         radius="7"
         operator="dilate"
         result="result8"
         in="SourceGraphic"
         id="feMorphology3874-6-4" />
      <feComposite
         k4="0"
         k2="0"
         in2="result8"
         result="result10"
         in="SourceGraphic"
         operator="arithmetic"
         k1="0.5"
         k3="0.5"
         id="feComposite3876-6-9" />
      <feTurbulence
         result="result11"
         type="fractalNoise"
         numOctaves="3"
         baseFrequency="0.07"
         id="feTurbulence3878-0-1" />
      <feDisplacementMap
         yChannelSelector="A"
         result="result12"
         in2="result11"
         in="result10"
         xChannelSelector="R"
         scale="10"
         id="feDisplacementMap3880-0-7" />
      <feComposite
         k4="0"
         operator="arithmetic"
         result="result13"
         in="SourceGraphic"
         in2="result12"
         k1="0.25"
         k2="0.25"
         k3="0.75"
         id="feComposite3882-6-0" />
    </filter>
    <linearGradient
       inkscape:collect="always"
       xlink:href="#linearGradient4603"
       id="linearGradient4452"
       gradientUnits="userSpaceOnUse"
       x1="567.16992"
       y1="451.8139"
       x2="7.7705364"
       y2="446.33981" />
  </defs>
  <sodipodi:namedview
     id="base"
     pagecolor="#ffffff"
     bordercolor="#666666"
     borderopacity="1.0"
     inkscape:pageopacity="0.0"
     inkscape:pageshadow="2"
     inkscape:zoom="0.98994949"
     inkscape:cx="456.67829"
     inkscape:cy="243.13206"
     inkscape:document-units="px"
     inkscape:current-layer="layer1"
     showgrid="false"
     inkscape:window-width="1920"
     inkscape:window-height="1138"
     inkscape:window-x="0"
     inkscape:window-y="560"
     inkscape:window-maximized="1"
     fit-margin-top="0"
     fit-margin-left="0"
     fit-margin-right="0"
     fit-margin-bottom="0"
     showguides="false" />
  <metadata
     id="metadata7">
    <rdf:RDF>
      <cc:Work
         rdf:about="">
        <dc:format>image/svg+xml</dc:format>
        <dc:type
           rdf:resource="http://purl.org/dc/dcmitype/StillImage" />
        <dc:title></dc:title>
      </cc:Work>
    </rdf:RDF>
  </metadata>
  <g
     inkscape:label="Layer 1"
     inkscape:groupmode="layer"
     id="layer1"
     transform="translate(-77.350058,-371.19913)">
    <flowRoot
       xml:space="preserve"
       id="flowRoot3356"
       style="font-style:normal;font-variant:normal;font-weight:normal;font-stretch:normal;font-size:56px;line-height:100%;font-family:'Veteran Typewriter';-inkscape-font-specification:'Veteran Typewriter';text-align:center;writing-mode:lr-tb;text-anchor:middle;opacity:0.71211919;fill:#165016;fill-opacity:1;fill-rule:nonzero;stroke:#143c31;stroke-width:8;stroke-linecap:round;stroke-linejoin:round;stroke-miterlimit:4;stroke-dasharray:none;stroke-dashoffset:0;stroke-opacity:0.79211468"
       transform="translate(38.771523,293.63885)"><flowRegion
         id="flowRegion3358"><rect
           id="rect3360"
           width="884.89362"
           height="404.061"
           x="-139.40105"
           y="183.90767" /></flowRegion><flowPara
         id="flowPara3362" /></flowRoot>    <g
       id="g4301"
       transform="translate(-13.131983,12.121831)">
      <g
         transform="matrix(0.99997514,-0.00705031,0.00705031,0.99997514,-4.3261827,6.612664)"
         id="g3816">
        <path
           transform="matrix(1.0038531,0.05700565,-0.0392713,0.69155639,14.685003,198.60569)"
           style="fill:url(#linearGradient3978);fill-opacity:1;fill-rule:evenodd;stroke:#1a1a1a;stroke-width:7.50350857;stroke-linecap:round;stroke-linejoin:round;stroke-miterlimit:4;stroke-opacity:1;filter:url(#filter3872)"
           d="m 142.87303,245.21933 510.24268,0 0,125.7143 -510.24268,0 z"
           id="rect2985"
           inkscape:connector-curvature="0" />
        <g
           id="g4030"
           style="opacity:0.71211919;fill:#333333;stroke:#5c6830;stroke-opacity:1"
           transform="matrix(0.99831451,0.05669113,-0.0392713,0.69155639,15.841662,198.67137)">
          <path
             inkscape:connector-curvature="0"
             id="path3763"
             d="m 205.7143,246.41839 0,121.1733"
             style="fill:#333333;fill-opacity:1;fill-rule:nonzero;stroke:#5c6830;stroke-width:7.51980972;stroke-linecap:round;stroke-linejoin:round;stroke-miterlimit:4;stroke-dasharray:none;stroke-dashoffset:0;stroke-opacity:1" />
          <path
             inkscape:connector-curvature="0"
             id="path3763-9"
             d="m 333.21428,246.41839 0,121.17329"
             style="fill:#333333;fill-opacity:1;fill-rule:nonzero;stroke:#5c6830;stroke-width:7.51980972;stroke-linecap:round;stroke-linejoin:round;stroke-miterlimit:4;stroke-dasharray:none;stroke-dashoffset:0;stroke-opacity:1" />
          <path
             inkscape:connector-curvature="0"
             id="path3763-3"
             d="m 269.46428,246.41839 0,121.17329"
             style="fill:#333333;fill-opacity:1;fill-rule:nonzero;stroke:#5c6830;stroke-width:7.51980972;stroke-linecap:round;stroke-linejoin:round;stroke-miterlimit:4;stroke-dasharray:none;stroke-dashoffset:0;stroke-opacity:1" />
          <path
             inkscape:connector-curvature="0"
             id="path3763-99"
             d="m 396.96428,246.41839 0,121.17329"
             style="fill:#333333;fill-opacity:1;fill-rule:nonzero;stroke:#5c6830;stroke-width:7.51980972;stroke-linecap:round;stroke-linejoin:round;stroke-miterlimit:4;stroke-dasharray:none;stroke-dashoffset:0;stroke-opacity:1" />
          <path
             inkscape:connector-curvature="0"
             id="path3763-7"
             d="m 460.71428,245.7041 0,121.1733"
             style="fill:#333333;fill-opacity:1;fill-rule:nonzero;stroke:#5c6830;stroke-width:7.51980972;stroke-linecap:round;stroke-linejoin:round;stroke-miterlimit:4;stroke-dasharray:none;stroke-dashoffset:0;stroke-opacity:1" />
          <path
             inkscape:connector-curvature="0"
             id="path3763-2"
             d="m 524.46425,247.13268 0,121.17329"
             style="fill:#333333;fill-opacity:1;fill-rule:nonzero;stroke:#5c6830;stroke-width:7.51980972;stroke-linecap:round;stroke-linejoin:round;stroke-miterlimit:4;stroke-dasharray:none;stroke-dashoffset:0;stroke-opacity:1" />
          <path
             inkscape:connector-curvature="0"
             id="path3763-6"
             d="m 588.21425,247.84696 0,121.1733"
             style="fill:#333333;fill-opacity:1;fill-rule:nonzero;stroke:#5c6830;stroke-width:7.51980972;stroke-linecap:round;stroke-linejoin:round;stroke-miterlimit:4;stroke-dasharray:none;stroke-dashoffset:0;stroke-opacity:1" />
        </g>
        <g
           style="font-style:normal;font-variant:normal;font-weight:normal;font-stretch:normal;font-size:72px;line-height:100%;font-family:'Veteran Typewriter';-inkscape-font-specification:'Veteran Typewriter';text-align:center;writing-mode:lr-tb;text-anchor:middle;fill:#1a1a1a;fill-opacity:1;fill-rule:nonzero;stroke:none"
           id="text3884-4"
           transform="matrix(0.99839151,0.0566955,-0.0566955,0.99839151,26.574266,9.1304999)">
          <path
             d="m 302.27136,381.34836 1.40625,0.3164 0.31641,-0.3164 0.35156,0 c 1.10154,5e-5 2.49607,0.69145 4.18359,2.07422 l -0.35156,0.35156 0,0.35156 0.35156,0.35156 -1.05468,0.31641 0.70312,1.05469 -0.35156,0.35156 0,0.35156 c 0.93748,5e-5 1.40622,0.45708 1.40625,1.3711 l 0.35156,0 c 0.67966,4e-5 1.72263,-0.45699 3.12891,-1.3711 2.29684,3.07036 3.44528,5.15629 3.44531,6.25782 -3e-5,0.46878 -0.33987,0.70316 -1.01953,0.70312 l 1.01953,2.77734 0.35156,0 0.35157,-0.35156 0.35156,0 c 0.86715,1.73441 1.45309,4.51175 1.75781,8.33203 l -0.70312,5.20313 0.35156,0.35156 c -4e-5,4.17189 -2.08597,9.73829 -6.25781,16.69922 l -2.10938,2.07422 -1.72266,-0.35156 -2.07421,2.42578 -0.35157,-0.35157 -0.35156,0.35157 -5.90625,0 -4.18359,-0.66797 0,0.66797 -0.35157,0 -6.25781,-6.57422 1.05469,-1.75781 c -0.75001,0 -1.20704,-0.80859 -1.37109,-2.42579 l -0.35157,0.35157 -0.35156,0 c -0.65625,1e-5 -1.24219,-1.04296 -1.75781,-3.12891 l 1.40625,-1.75781 c -0.77344,-1.54686 -1.81641,-2.81248 -3.12891,-3.79688 l -0.35156,-3.83203 0,-0.35156 c 0.60937,-8.34372 1.41797,-12.51559 2.42578,-12.51563 l -0.35156,-1.72265 c 6.16405,-7.19527 10.80467,-10.79292 13.92187,-10.79297 l 1.3711,0 c -2e-5,-0.67964 0.23435,-1.01948 0.70312,-1.01953 m 7.98047,3.1289 0.35156,0 c 1.05466,0.44536 1.6406,0.90239 1.75782,1.3711 l 0,0.35156 -0.35157,0 -1.75781,-1.72266 m -21.86719,22.92188 0,0.35156 0.66797,0.70313 -0.3164,0.35156 0,1.37109 1.01953,-0.70312 2.77734,8.36719 0,0.3164 -0.70312,0 0,0.70313 c 0.72655,1e-5 1.42967,0.58595 2.10937,1.75781 l 0,0.35156 -0.35156,0 c -1.38282,-0.91405 -2.07423,-1.73436 -2.07422,-2.46094 l -0.70313,0.70313 c 0.46875,1e-5 1.39453,0.69142 2.77735,2.07422 l 1.05469,-0.31641 3.79687,3.44531 0.70313,-0.66796 1.75781,0.35156 2.77734,0 c 1.31248,10e-6 2.92967,-1.16015 4.85156,-3.48047 0.96092,1e-5 1.65232,-0.58593 2.07422,-1.75781 -2e-5,-0.46874 0.35154,-0.70311 1.05469,-0.70313 l -0.70312,-1.37109 2.42578,-7.3125 c 1.17184,-0.30467 1.75778,-1.11326 1.75781,-2.42578 -1.38284,2e-5 -2.07425,-2.32029 -2.07422,-6.96094 -3e-5,-0.44528 0.33982,-0.66794 1.01953,-0.66797 l 0,-1.05469 c -0.91409,4e-5 -1.37112,-0.69137 -1.37109,-2.07422 l -0.35156,0.35157 -0.70313,0 c -1.07815,-3.3984 -3.16409,-6.07027 -6.25781,-8.01563 l -2.77735,-0.35156 -3.48046,0 c -2.83595,4e-5 -5.61329,3.93754 -8.33204,11.8125 0,3.53909 -0.80859,5.97659 -2.42578,7.3125 m 2.07422,13.21875 0,0.35156 1.05469,0.66797 0,-0.35156 -1.05469,-0.66797"
             id="path3112"
             inkscape:connector-curvature="0"
             style="fill:#1a1a1a" />
        </g>
        <g
           style="font-style:normal;font-variant:normal;font-weight:normal;font-stretch:normal;font-size:72px;line-height:100%;font-family:'Veteran Typewriter';-inkscape-font-specification:'Veteran Typewriter';text-align:center;writing-mode:lr-tb;text-anchor:middle;fill:#1a1a1a;fill-opacity:1;fill-rule:nonzero;stroke:none"
           id="text3884-0"
           transform="matrix(0.99839151,0.0566955,-0.0566955,0.99839151,26.574266,9.1304999)">
          <path
             d="m 428.2085,381.34836 1.40625,0.3164 0.3164,-0.3164 0.35156,0 c 1.10155,5e-5 2.49608,0.69145 4.1836,2.07422 l -0.35156,0.35156 0,0.35156 0.35156,0.35156 -1.05469,0.31641 0.70313,1.05469 -0.35157,0.35156 0,0.35156 c 0.93748,5e-5 1.40623,0.45708 1.40625,1.3711 l 0.35157,0 c 0.67966,4e-5 1.72263,-0.45699 3.1289,-1.3711 2.29685,3.07036 3.44528,5.15629 3.44531,6.25782 -3e-5,0.46878 -0.33987,0.70316 -1.01953,0.70312 l 1.01953,2.77734 0.35157,0 0.35156,-0.35156 0.35156,0 c 0.86716,1.73441 1.45309,4.51175 1.75781,8.33203 l -0.70312,5.20313 0.35156,0.35156 c -3e-5,4.17189 -2.08597,9.73829 -6.25781,16.69922 l -2.10938,2.07422 -1.72265,-0.35156 -2.07422,2.42578 -0.35156,-0.35157 -0.35157,0.35157 -5.90625,0 -4.18359,-0.66797 0,0.66797 -0.35156,0 -6.25781,-6.57422 1.05468,-1.75781 c -0.75,0 -1.20703,-0.80859 -1.37109,-2.42579 l -0.35156,0.35157 -0.35157,0 c -0.65625,1e-5 -1.24219,-1.04296 -1.75781,-3.12891 l 1.40625,-1.75781 c -0.77344,-1.54686 -1.81641,-2.81248 -3.1289,-3.79688 l -0.35157,-3.83203 0,-0.35156 c 0.60938,-8.34372 1.41797,-12.51559 2.42578,-12.51563 l -0.35156,-1.72265 c 6.16406,-7.19527 10.80468,-10.79292 13.92188,-10.79297 l 1.37109,0 c -2e-5,-0.67964 0.23436,-1.01948 0.70313,-1.01953 m 7.98046,3.1289 0.35157,0 c 1.05466,0.44536 1.64059,0.90239 1.75781,1.3711 l 0,0.35156 -0.35156,0 -1.75782,-1.72266 m -21.86718,22.92188 0,0.35156 0.66797,0.70313 -0.31641,0.35156 0,1.37109 1.01953,-0.70312 2.77734,8.36719 0,0.3164 -0.70312,0 0,0.70313 c 0.72655,1e-5 1.42968,0.58595 2.10937,1.75781 l 0,0.35156 -0.35156,0 c -1.38282,-0.91405 -2.07422,-1.73436 -2.07422,-2.46094 l -0.70312,0.70313 c 0.46874,1e-5 1.39452,0.69142 2.77734,2.07422 l 1.05469,-0.31641 3.79687,3.44531 0.70313,-0.66796 1.75781,0.35156 2.77735,0 c 1.31248,10e-6 2.92966,-1.16015 4.85156,-3.48047 0.96091,1e-5 1.65232,-0.58593 2.07422,-1.75781 -3e-5,-0.46874 0.35153,-0.70311 1.05468,-0.70313 l -0.70312,-1.37109 2.42578,-7.3125 c 1.17185,-0.30467 1.75778,-1.11326 1.75781,-2.42578 -1.38284,2e-5 -2.07424,-2.32029 -2.07422,-6.96094 -2e-5,-0.44528 0.33982,-0.66794 1.01954,-0.66797 l 0,-1.05469 c -0.9141,4e-5 -1.37113,-0.69137 -1.3711,-2.07422 l -0.35156,0.35157 -0.70313,0 c -1.07815,-3.3984 -3.16408,-6.07027 -6.25781,-8.01563 l -2.77734,-0.35156 -3.48047,0 c -2.83595,4e-5 -5.61329,3.93754 -8.33203,11.8125 -1e-5,3.53909 -0.8086,5.97659 -2.42578,7.3125 m 2.07422,13.21875 0,0.35156 1.05468,0.66797 0,-0.35156 -1.05468,-0.66797"
             id="path3115"
             inkscape:connector-curvature="0"
             style="fill:#1a1a1a" />
        </g>
        <g
           style="font-style:normal;font-variant:normal;font-weight:normal;font-stretch:normal;font-size:72px;line-height:100%;font-family:'Veteran Typewriter';-inkscape-font-specification:'Veteran Typewriter';text-align:center;writing-mode:lr-tb;text-anchor:middle;fill:#1a1a1a;fill-opacity:1;fill-rule:nonzero;stroke:none"
           id="text3884-5"
           transform="matrix(0.99839151,0.0566955,-0.0566955,0.99839151,26.574266,9.1304999)">
          <path
             d="m 491.17703,381.34836 1.40625,0.3164 0.31641,-0.3164 0.35156,0 c 1.10154,5e-5 2.49607,0.69145 4.18359,2.07422 l -0.35156,0.35156 0,0.35156 0.35156,0.35156 -1.05468,0.31641 0.70312,1.05469 -0.35156,0.35156 0,0.35156 c 0.93748,5e-5 1.40622,0.45708 1.40625,1.3711 l 0.35156,0 c 0.67966,4e-5 1.72263,-0.45699 3.12891,-1.3711 2.29684,3.07036 3.44528,5.15629 3.44531,6.25782 -3e-5,0.46878 -0.33987,0.70316 -1.01953,0.70312 l 1.01953,2.77734 0.35156,0 0.35157,-0.35156 0.35156,0 c 0.86715,1.73441 1.45309,4.51175 1.75781,8.33203 l -0.70312,5.20313 0.35156,0.35156 c -4e-5,4.17189 -2.08597,9.73829 -6.25781,16.69922 l -2.10938,2.07422 -1.72266,-0.35156 -2.07421,2.42578 -0.35157,-0.35157 -0.35156,0.35157 -5.90625,0 -4.18359,-0.66797 0,0.66797 -0.35157,0 -6.25781,-6.57422 1.05469,-1.75781 c -0.75001,0 -1.20704,-0.80859 -1.37109,-2.42579 l -0.35157,0.35157 -0.35156,0 c -0.65625,1e-5 -1.24219,-1.04296 -1.75781,-3.12891 l 1.40625,-1.75781 c -0.77344,-1.54686 -1.81641,-2.81248 -3.12891,-3.79688 l -0.35156,-3.83203 0,-0.35156 c 0.60937,-8.34372 1.41797,-12.51559 2.42578,-12.51563 l -0.35156,-1.72265 c 6.16405,-7.19527 10.80467,-10.79292 13.92187,-10.79297 l 1.3711,0 c -2e-5,-0.67964 0.23435,-1.01948 0.70312,-1.01953 m 7.98047,3.1289 0.35156,0 c 1.05466,0.44536 1.6406,0.90239 1.75782,1.3711 l 0,0.35156 -0.35157,0 -1.75781,-1.72266 m -21.86719,22.92188 0,0.35156 0.66797,0.70313 -0.3164,0.35156 0,1.37109 1.01953,-0.70312 2.77734,8.36719 0,0.3164 -0.70312,0 0,0.70313 c 0.72655,1e-5 1.42967,0.58595 2.10937,1.75781 l 0,0.35156 -0.35156,0 c -1.38282,-0.91405 -2.07423,-1.73436 -2.07422,-2.46094 l -0.70313,0.70313 c 0.46875,1e-5 1.39453,0.69142 2.77735,2.07422 l 1.05469,-0.31641 3.79687,3.44531 0.70313,-0.66796 1.75781,0.35156 2.77734,0 c 1.31248,10e-6 2.92967,-1.16015 4.85156,-3.48047 0.96092,1e-5 1.65232,-0.58593 2.07422,-1.75781 -2e-5,-0.46874 0.35154,-0.70311 1.05469,-0.70313 l -0.70312,-1.37109 2.42578,-7.3125 c 1.17184,-0.30467 1.75778,-1.11326 1.75781,-2.42578 -1.38284,2e-5 -2.07425,-2.32029 -2.07422,-6.96094 -3e-5,-0.44528 0.33982,-0.66794 1.01953,-0.66797 l 0,-1.05469 c -0.91409,4e-5 -1.37112,-0.69137 -1.37109,-2.07422 l -0.35156,0.35157 -0.70313,0 c -1.07815,-3.3984 -3.16409,-6.07027 -6.25781,-8.01563 l -2.77735,-0.35156 -3.48046,0 c -2.83595,4e-5 -5.61329,3.93754 -8.33204,11.8125 0,3.53909 -0.80859,5.97659 -2.42578,7.3125 m 2.07422,13.21875 0,0.35156 1.05469,0.66797 0,-0.35156 -1.05469,-0.66797"
             id="path3118"
             inkscape:connector-curvature="0"
             style="fill:#1a1a1a" />
        </g>
        <g
           style="font-style:normal;font-variant:normal;font-weight:normal;font-stretch:normal;font-size:72px;line-height:100%;font-family:'Veteran Typewriter';-inkscape-font-specification:'Veteran Typewriter';text-align:center;writing-mode:lr-tb;text-anchor:middle;fill:#1a1a1a;fill-opacity:1;fill-rule:nonzero;stroke:none"
           id="text3884-3"
           transform="matrix(0.99839151,0.0566955,-0.0566955,0.99839151,26.574266,9.1304999)">
          <path
             d="m 554.14563,381.34836 1.40625,0.3164 0.31641,-0.3164 0.35156,0 c 1.10154,5e-5 2.49607,0.69145 4.18359,2.07422 l -0.35156,0.35156 0,0.35156 0.35156,0.35156 -1.05469,0.31641 0.70313,1.05469 -0.35156,0.35156 0,0.35156 c 0.93747,5e-5 1.40622,0.45708 1.40625,1.3711 l 0.35156,0 c 0.67966,4e-5 1.72263,-0.45699 3.12891,-1.3711 2.29684,3.07036 3.44528,5.15629 3.44531,6.25782 -3e-5,0.46878 -0.33988,0.70316 -1.01953,0.70312 l 1.01953,2.77734 0.35156,0 0.35156,-0.35156 0.35157,0 c 0.86715,1.73441 1.45309,4.51175 1.75781,8.33203 l -0.70313,5.20313 0.35157,0.35156 c -4e-5,4.17189 -2.08597,9.73829 -6.25782,16.69922 l -2.10937,2.07422 -1.72266,-0.35156 -2.07422,2.42578 -0.35156,-0.35157 -0.35156,0.35157 -5.90625,0 -4.1836,-0.66797 0,0.66797 -0.35156,0 -6.25781,-6.57422 1.05469,-1.75781 c -0.75001,0 -1.20704,-0.80859 -1.3711,-2.42579 l -0.35156,0.35157 -0.35156,0 c -0.65625,1e-5 -1.24219,-1.04296 -1.75781,-3.12891 l 1.40625,-1.75781 c -0.77344,-1.54686 -1.81641,-2.81248 -3.12891,-3.79688 l -0.35156,-3.83203 0,-0.35156 c 0.60937,-8.34372 1.41796,-12.51559 2.42578,-12.51563 l -0.35156,-1.72265 c 6.16405,-7.19527 10.80467,-10.79292 13.92187,-10.79297 l 1.37109,0 c -10e-6,-0.67964 0.23436,-1.01948 0.70313,-1.01953 m 7.98047,3.1289 0.35156,0 c 1.05466,0.44536 1.6406,0.90239 1.75781,1.3711 l 0,0.35156 -0.35156,0 -1.75781,-1.72266 m -21.86719,22.92188 0,0.35156 0.66797,0.70313 -0.31641,0.35156 0,1.37109 1.01953,-0.70312 2.77735,8.36719 0,0.3164 -0.70313,0 0,0.70313 c 0.72656,1e-5 1.42968,0.58595 2.10938,1.75781 l 0,0.35156 -0.35156,0 c -1.38282,-0.91405 -2.07423,-1.73436 -2.07422,-2.46094 l -0.70313,0.70313 c 0.46875,1e-5 1.39453,0.69142 2.77735,2.07422 l 1.05468,-0.31641 3.79688,3.44531 0.70312,-0.66796 1.75782,0.35156 2.77734,0 c 1.31248,10e-6 2.92967,-1.16015 4.85156,-3.48047 0.96091,1e-5 1.65232,-0.58593 2.07422,-1.75781 -3e-5,-0.46874 0.35154,-0.70311 1.05469,-0.70313 l -0.70313,-1.37109 2.42578,-7.3125 c 1.17185,-0.30467 1.75779,-1.11326 1.75782,-2.42578 -1.38284,2e-5 -2.07425,-2.32029 -2.07422,-6.96094 -3e-5,-0.44528 0.33981,-0.66794 1.01953,-0.66797 l 0,-1.05469 c -0.91409,4e-5 -1.37112,-0.69137 -1.37109,-2.07422 l -0.35157,0.35157 -0.70312,0 c -1.07815,-3.3984 -3.16409,-6.07027 -6.25781,-8.01563 l -2.77735,-0.35156 -3.48047,0 c -2.83595,4e-5 -5.61329,3.93754 -8.33203,11.8125 0,3.53909 -0.8086,5.97659 -2.42578,7.3125 m 2.07422,13.21875 0,0.35156 1.05469,0.66797 0,-0.35156 -1.05469,-0.66797"
             id="path3121"
             inkscape:connector-curvature="0"
             style="fill:#1a1a1a" />
        </g>
        <g
           style="font-style:normal;font-variant:normal;font-weight:normal;font-stretch:normal;font-size:72px;line-height:100%;font-family:'Veteran Typewriter';-inkscape-font-specification:'Veteran Typewriter';text-align:center;writing-mode:lr-tb;text-anchor:middle;fill:#1a1a1a;fill-opacity:1;fill-rule:nonzero;stroke:none"
           id="text3884-49"
           transform="matrix(0.99839151,0.0566955,-0.0566955,0.99839151,26.574266,9.1304999)">
          <path
             d="m 617.11414,381.34836 1.40625,0.3164 0.3164,-0.3164 0.35156,0 c 1.10155,5e-5 2.49608,0.69145 4.1836,2.07422 l -0.35156,0.35156 0,0.35156 0.35156,0.35156 -1.05469,0.31641 0.70313,1.05469 -0.35157,0.35156 0,0.35156 c 0.93748,5e-5 1.40623,0.45708 1.40625,1.3711 l 0.35157,0 c 0.67966,4e-5 1.72262,-0.45699 3.1289,-1.3711 2.29685,3.07036 3.44528,5.15629 3.44531,6.25782 -3e-5,0.46878 -0.33987,0.70316 -1.01953,0.70312 l 1.01953,2.77734 0.35157,0 0.35156,-0.35156 0.35156,0 c 0.86716,1.73441 1.45309,4.51175 1.75781,8.33203 l -0.70312,5.20313 0.35156,0.35156 c -3e-5,4.17189 -2.08597,9.73829 -6.25781,16.69922 l -2.10938,2.07422 -1.72265,-0.35156 -2.07422,2.42578 -0.35156,-0.35157 -0.35157,0.35157 -5.90625,0 -4.18359,-0.66797 0,0.66797 -0.35156,0 -6.25781,-6.57422 1.05468,-1.75781 c -0.75,0 -1.20703,-0.80859 -1.37109,-2.42579 l -0.35156,0.35157 -0.35157,0 c -0.65625,1e-5 -1.24219,-1.04296 -1.75781,-3.12891 l 1.40625,-1.75781 c -0.77344,-1.54686 -1.81641,-2.81248 -3.1289,-3.79688 l -0.35157,-3.83203 0,-0.35156 c 0.60938,-8.34372 1.41797,-12.51559 2.42578,-12.51563 l -0.35156,-1.72265 c 6.16406,-7.19527 10.80468,-10.79292 13.92188,-10.79297 l 1.37109,0 c -2e-5,-0.67964 0.23436,-1.01948 0.70313,-1.01953 m 7.98046,3.1289 0.35157,0 c 1.05466,0.44536 1.64059,0.90239 1.75781,1.3711 l 0,0.35156 -0.35156,0 -1.75782,-1.72266 m -21.86718,22.92188 0,0.35156 0.66797,0.70313 -0.31641,0.35156 0,1.37109 1.01953,-0.70312 2.77734,8.36719 0,0.3164 -0.70312,0 0,0.70313 c 0.72655,1e-5 1.42968,0.58595 2.10937,1.75781 l 0,0.35156 -0.35156,0 c -1.38282,-0.91405 -2.07422,-1.73436 -2.07422,-2.46094 l -0.70312,0.70313 c 0.46874,1e-5 1.39452,0.69142 2.77734,2.07422 l 1.05469,-0.31641 3.79687,3.44531 0.70313,-0.66796 1.75781,0.35156 2.77735,0 c 1.31247,10e-6 2.92966,-1.16015 4.85156,-3.48047 0.96091,1e-5 1.65232,-0.58593 2.07422,-1.75781 -3e-5,-0.46874 0.35153,-0.70311 1.05468,-0.70313 l -0.70312,-1.37109 2.42578,-7.3125 c 1.17185,-0.30467 1.75778,-1.11326 1.75781,-2.42578 -1.38284,2e-5 -2.07424,-2.32029 -2.07422,-6.96094 -2e-5,-0.44528 0.33982,-0.66794 1.01954,-0.66797 l 0,-1.05469 c -0.9141,4e-5 -1.37113,-0.69137 -1.3711,-2.07422 l -0.35156,0.35157 -0.70313,0 c -1.07815,-3.3984 -3.16408,-6.07027 -6.25781,-8.01563 l -2.77734,-0.35156 -3.48047,0 c -2.83595,4e-5 -5.61329,3.93754 -8.33203,11.8125 -10e-6,3.53909 -0.8086,5.97659 -2.42578,7.3125 m 2.07422,13.21875 0,0.35156 1.05468,0.66797 0,-0.35156 -1.05468,-0.66797"
             id="path3124"
             inkscape:connector-curvature="0"
             style="fill:#1a1a1a" />
        </g>
        <g
           style="font-style:normal;font-variant:normal;font-weight:normal;font-stretch:normal;font-size:72px;line-height:100%;font-family:'Veteran Typewriter';-inkscape-font-specification:'Veteran Typewriter';text-align:center;writing-mode:lr-tb;text-anchor:middle;fill:#1a1a1a;fill-opacity:1;fill-rule:nonzero;stroke:none"
           id="text3884-39"
           transform="matrix(0.99839151,0.0566955,-0.0566955,0.99839151,26.574266,9.1304999)">
          <path
             d="m 232.02547,381.98117 4.5,0 c 0.46873,5e-5 0.70311,0.35161 0.70312,1.05469 l 0.70313,0 0.70312,-0.70313 c 2.29686,1.12505 3.44529,3.0938 3.44531,5.90625 -2e-5,0.8438 -1.03126,2.35551 -3.09375,4.53516 l 0,0.70312 1.3711,0.35157 1.05469,-1.05469 0.35156,0 -0.35156,1.37109 0.35156,2.8125 -0.35156,16.66407 -0.35157,0.35156 -0.35156,0 0,-1.05469 -1.05469,0 c 1.40623,1.42971 2.10936,2.70705 2.10938,3.83203 l -0.35156,0.35156 -0.35157,0 0.35157,0.35157 0,0.70312 c -2e-5,0.3047 -1.74612,0.87892 -5.23829,1.72266 l -0.3164,0.35156 -0.35156,-0.35156 0,-0.35156 0.35156,-0.35157 -0.35156,-0.35156 0,-0.66797 0.35156,-0.35156 -0.35156,-0.35156 0,-1.05469 c 1.85154,-1.54686 2.77732,-3.04686 2.77734,-4.5 -0.58595,2e-5 -1.39455,-0.46873 -2.42578,-1.40625 l 0.3164,-5.20313 0,-3.48046 -0.3164,-9.38672 2.07422,-1.72266 -1.40625,0 0,1.01953 c -1.33595,-0.74996 -2.26173,-1.55855 -2.77735,-2.42578 l 0,-0.35156 0.35157,0 1.75781,1.40625 0,-0.70313 -1.05469,-1.05468 -2.42578,0.35156 -1.75781,0 -0.35157,-0.35156 -0.35156,0.35156 -2.77734,0 c -3,4e-5 -4.5,-1.04293 -4.5,-3.12891 l 0,-0.35156 0.70312,-0.66797 -0.35156,-0.35156 0.35156,-0.35156 0.35157,0 0.3164,0.35156 c 0,-0.63277 0.58594,-1.2187 1.75781,-1.75781 l 3.48047,2.10937 0,-1.40625 0.66797,0 0.35156,0.35156 0.35157,0 1.40625,-1.75781 m 7.27734,32.69531 0,1.01953 1.40625,0 -1.05469,-1.01953 -0.35156,0 m -0.66797,5.20313 0,0.70312 0.35156,-0.35156 0.31641,0 0.35156,0.35156 0,0.35157 c -0.58595,0.67969 -1.16017,1.01954 -1.72265,1.01953 l 0,0.35156 0.35156,0 3.12891,-0.70313 c -2e-5,1.4297 0.80857,2.58986 2.42578,3.48047 l 6.96093,0 2.42579,-0.35156 c 0.3984,1.17188 0.97262,1.75782 1.72265,1.75781 -0.46878,3.00001 -1.85159,4.5 -4.14844,4.5 l -6.96093,-0.35156 -3.12891,0.70313 -5.90625,0 -2.77734,0.70312 -0.35157,0 c -6.25781,-1.03125 -9.38671,-1.95703 -9.38671,-2.77734 l 0,-1.40625 2.77734,-2.77735 2.07422,0.35157 1.05469,-1.01954 6.25781,0.31641 c 0.32811,-1.03124 1.37108,-1.83983 3.1289,-2.42578 l 0.70313,-1.72266 -0.35156,-0.35156 0.35156,-0.35156 0.35156,0"
             id="path3127"
             inkscape:connector-curvature="0"
             style="fill:#1a1a1a" />
        </g>
        <g
           style="font-style:normal;font-variant:normal;font-weight:normal;font-stretch:normal;font-size:72px;line-height:100%;font-family:'Veteran Typewriter';-inkscape-font-specification:'Veteran Typewriter';text-align:center;writing-mode:lr-tb;text-anchor:middle;fill:#1a1a1a;fill-opacity:1;fill-rule:nonzero;stroke:none"
           id="text3884-39-4"
           transform="matrix(0.99839151,0.0566955,-0.0566955,0.99839151,26.574266,9.1304999)">
          <path
             d="m 357.96259,381.98117 4.5,0 c 0.46873,5e-5 0.70311,0.35161 0.70312,1.05469 l 0.70313,0 0.70312,-0.70313 c 2.29686,1.12505 3.44529,3.0938 3.44531,5.90625 -2e-5,0.8438 -1.03127,2.35551 -3.09375,4.53516 l 0,0.70312 1.3711,0.35157 1.05468,-1.05469 0.35157,0 -0.35157,1.37109 0.35157,2.8125 -0.35157,16.66407 -0.35156,0.35156 -0.35156,0 0,-1.05469 -1.05469,0 c 1.40623,1.42971 2.10936,2.70705 2.10938,3.83203 l -0.35157,0.35156 -0.35156,0 0.35156,0.35157 0,0.70312 c -1e-5,0.3047 -1.74611,0.87892 -5.23828,1.72266 l -0.3164,0.35156 -0.35157,-0.35156 0,-0.35156 0.35157,-0.35157 -0.35157,-0.35156 0,-0.66797 0.35157,-0.35156 -0.35157,-0.35156 0,-1.05469 c 1.85155,-1.54686 2.77733,-3.04686 2.77735,-4.5 -0.58596,2e-5 -1.39455,-0.46873 -2.42578,-1.40625 l 0.3164,-5.20313 0,-3.48046 -0.3164,-9.38672 2.07422,-1.72266 -1.40625,0 0,1.01953 c -1.33596,-0.74996 -2.26174,-1.55855 -2.77735,-2.42578 l 0,-0.35156 0.35156,0 1.75782,1.40625 0,-0.70313 -1.05469,-1.05468 -2.42578,0.35156 -1.75781,0 -0.35157,-0.35156 -0.35156,0.35156 -2.77734,0 c -3.00001,4e-5 -4.5,-1.04293 -4.5,-3.12891 l 0,-0.35156 0.70312,-0.66797 -0.35156,-0.35156 0.35156,-0.35156 0.35156,0 0.31641,0.35156 c 0,-0.63277 0.58594,-1.2187 1.75781,-1.75781 l 3.48047,2.10937 0,-1.40625 0.66797,0 0.35156,0.35156 0.35157,0 1.40625,-1.75781 m 7.27734,32.69531 0,1.01953 1.40625,0 -1.05469,-1.01953 -0.35156,0 m -0.66797,5.20313 0,0.70312 0.35156,-0.35156 0.31641,0 0.35156,0.35156 0,0.35157 c -0.58595,0.67969 -1.16017,1.01954 -1.72265,1.01953 l 0,0.35156 0.35156,0 3.1289,-0.70313 c -1e-5,1.4297 0.80858,2.58986 2.42579,3.48047 l 6.96093,0 2.42578,-0.35156 c 0.39841,1.17188 0.97263,1.75782 1.72266,1.75781 -0.46878,3.00001 -1.85159,4.5 -4.14844,4.5 l -6.96093,-0.35156 -3.12891,0.70313 -5.90625,0 -2.77734,0.70312 -0.35157,0 c -6.25781,-1.03125 -9.38672,-1.95703 -9.38672,-2.77734 l 0,-1.40625 2.77735,-2.77735 2.07422,0.35157 1.05468,-1.01954 6.25782,0.31641 c 0.32811,-1.03124 1.37108,-1.83983 3.1289,-2.42578 l 0.70313,-1.72266 -0.35156,-0.35156 0.35156,-0.35156 0.35156,0"
             id="path3130"
             inkscape:connector-curvature="0"
             style="fill:#1a1a1a" />
        </g>
        <g
           style="font-style:normal;font-variant:normal;font-weight:normal;font-stretch:normal;font-size:72px;line-height:100%;font-family:'Veteran Typewriter';-inkscape-font-specification:'Veteran Typewriter';text-align:center;writing-mode:lr-tb;text-anchor:middle;fill:#005500;fill-opacity:1;fill-rule:nonzero;stroke:none"
           id="text4611"
           transform="matrix(0.99839151,0.0566955,-0.0566955,0.99839151,26.574266,9.1304999)">
          <path
             d="m 161.10638,381.24289 c 2.39062,0.91411 3.89062,1.83989 4.5,2.77734 0.91406,5e-5 1.37109,0.33989 1.3711,1.01953 l 0.35156,0.35157 0.35156,1.05468 1.05469,0.35157 1.01953,-0.35157 -0.70312,-0.70312 -0.31641,0.35156 c -1e-5,-0.4687 -0.35158,-0.70308 -1.05469,-0.70312 l 0.70313,-0.66797 0.66797,0.66797 0.35156,-1.3711 1.05469,0 0,0.35157 -0.35157,0.35156 0,0.3164 0.35157,0 c 1.26561,-0.56245 2.64842,-1.82807 4.14843,-3.79687 l 1.40625,1.05469 4.14844,0 1.40625,0.3164 1.3711,-0.3164 c -3e-5,0.58598 1.04294,1.04301 3.1289,1.37109 l 0,0.35156 -1.05469,1.01953 -0.35156,0 0,0.35157 2.42578,2.77734 c 1.85153,-0.23433 2.77731,-0.69136 2.77735,-1.37109 l 0.70312,0 c 1.85153,3.77348 2.77731,6.65629 2.77735,8.64843 l 0,0.35157 c -4e-5,3.70315 -0.3516,5.55471 -1.05469,5.55468 l -0.35156,0 -0.31641,-0.35156 -0.35156,0.35156 -1.40625,0 -0.35157,-0.35156 -2.07421,1.40625 -0.35157,-0.35156 0,-0.35156 1.05469,-1.05469 c -3e-5,-5.76559 -1.50003,-9.3398 -4.5,-10.72266 l 0.35156,-0.35156 c -1.42971,-0.84371 -2.35549,-1.88667 -2.77734,-3.12891 -1.33596,1.38286 -3.76174,2.07427 -7.27734,2.07422 l -0.35157,0 c -1.6172,1.61723 -2.66017,2.42583 -3.1289,2.42578 l 0,1.40625 0.70312,3.79688 0,4.85156 c -0.44533,1.14847 -1.14845,1.72269 -2.10937,1.72266 l 0,0.70312 c 1.40623,0.0938 2.10936,0.78519 2.10937,2.07422 2.06248,3e-5 3.44529,0.35159 4.14844,1.05469 l 0.70312,0 8.29688,-0.70313 1.05469,1.40625 5.90625,-3.48046 0.35156,0.35156 c -2.53128,5.08596 -6.92581,7.62892 -13.18359,7.6289 l -4.5,0 c -1.61721,1.61721 -2.66018,2.4258 -3.12891,2.42579 l 0,3.48046 -0.35156,2.07422 0.35156,2.77735 0.35156,-0.35157 0.35156,0 c -1e-5,0.39845 0.57421,0.73829 1.72266,1.01954 l 0,0.70312 1.37109,0 1.40625,-0.35156 0.35157,0.35156 0.3164,0 1.05469,-0.35156 1.05469,1.05469 0.66797,-0.70313 c 0.7031,0.77345 1.05466,1.46485 1.05468,2.07422 l 0.35157,-0.35156 0.35156,0 0.66797,0.70312 0,0.35156 -0.31641,-0.35156 -0.70312,0 0,0.35156 0.35156,1.3711 c -3e-5,0.58594 -0.92581,1.51172 -2.77734,2.77734 l -7.62891,-0.35156 -6.60938,0 c -0.79688,0.70312 -2.17969,1.05469 -4.14843,1.05469 l -2.07422,0 c -1.85157,-0.5625 -2.77735,-1.82813 -2.77735,-3.79688 l 0,-2.46094 1.05469,-1.37109 0.31641,0.35156 2.42578,-0.35156 2.46094,0 1.01953,1.05469 2.42578,-1.05469 0,-0.35156 -0.35156,-0.35156 0.35156,-0.35157 0,-3.09375 -0.35156,-2.42578 0.35156,-3.1289 0,-5.90625 c -10e-6,-0.37498 0.80858,-0.71482 2.42578,-1.01954 l 0,-0.35156 -0.70312,-1.40625 0.35156,-1.01953 -0.35156,0 -1.01954,0.66797 -0.70312,-0.66797 0.70312,-13.88672 c -1.38282,-0.46871 -2.07422,-1.2773 -2.07421,-2.42578 l -0.35157,0.35156 -3.1289,0 c -3.00001,5e-5 -4.5,-1.04292 -4.5,-3.1289 l 0,-1.01953 0.70312,-0.70313 1.3711,0.35156 c 1.45312,-1.85151 2.61327,-2.77729 3.48046,-2.77734 m 27.03516,4.14844 0.35156,0 1.01953,1.05468 -0.35156,0 -1.01953,-0.35156 0,-0.70312 m -5.55469,1.05468 1.72266,1.72266 0,0.35156 0.70312,0 0,-0.70312 -2.07421,-1.3711 -0.35157,0 m -14.90625,20.10938 0.35157,0 0.70312,-0.70313 -0.35156,0 -0.70313,0.70313 m 12.48047,15.96094 2.07422,2.42578 -0.35156,0.3164 -0.31641,0 -2.10937,-2.42578 0.35156,-0.3164 0.35156,0 m -15.96094,0.66797 0.35157,0 -1.01953,1.05468 0,-0.35156 0.66796,-0.70312"
             id="path3133"
             inkscape:connector-curvature="0" />
        </g>
      </g>
      <g
         transform="matrix(0.99965453,-0.0262833,0.0262833,0.99965453,-14.571333,10.445169)"
         id="g3845">
        <g
           id="g4353"
           transform="matrix(0.99838248,0.05669499,-0.03913249,0.68911193,15.720381,200.32794)">
          <g
             id="g4348">
            <path
               transform="matrix(1.0055479,0,0,1,-1.1586124,153.57141)"
               style="fill:url(#linearGradient3980);fill-opacity:1;fill-rule:evenodd;stroke:#1a1a1a;stroke-width:7.50350857;stroke-linecap:round;stroke-linejoin:round;stroke-miterlimit:4;stroke-opacity:1;filter:url(#filter3872-6)"
               d="m 142.87303,245.21933 510.24268,0 0,125.7143 -510.24268,0 z"
               id="rect2985-0"
               inkscape:connector-curvature="0" />
          </g>
        </g>
        <g
           id="g4050"
           style="stroke:#274b19;stroke-opacity:0.79211468"
           transform="matrix(0.99838248,0.05669499,-0.03913249,0.68911193,15.720381,200.32793)">
          <path
             inkscape:connector-curvature="0"
             id="path3763-66"
             d="m 208.71943,401.41839 0,121.1733"
             style="fill:#008000;fill-opacity:1;fill-rule:nonzero;stroke:#274b19;stroke-width:7.51980972;stroke-linecap:round;stroke-linejoin:round;stroke-miterlimit:4;stroke-dasharray:none;stroke-dashoffset:0;stroke-opacity:0.79211468" />
          <path
             inkscape:connector-curvature="0"
             id="path3763-9-3"
             d="m 336.21941,401.41839 0,121.17329"
             style="fill:#008000;fill-opacity:1;fill-rule:nonzero;stroke:#274b19;stroke-width:7.51980972;stroke-linecap:round;stroke-linejoin:round;stroke-miterlimit:4;stroke-dasharray:none;stroke-dashoffset:0;stroke-opacity:0.79211468" />
          <path
             inkscape:connector-curvature="0"
             id="path3763-3-8"
             d="m 272.46941,401.41839 0,121.17329"
             style="fill:#008000;fill-opacity:1;fill-rule:nonzero;stroke:#274b19;stroke-width:7.51980972;stroke-linecap:round;stroke-linejoin:round;stroke-miterlimit:4;stroke-dasharray:none;stroke-dashoffset:0;stroke-opacity:0.79211468" />
          <path
             inkscape:connector-curvature="0"
             id="path3763-99-1"
             d="m 399.96941,401.41839 0,121.17329"
             style="fill:#008000;fill-opacity:1;fill-rule:nonzero;stroke:#274b19;stroke-width:7.51980972;stroke-linecap:round;stroke-linejoin:round;stroke-miterlimit:4;stroke-dasharray:none;stroke-dashoffset:0;stroke-opacity:0.79211468" />
          <path
             inkscape:connector-curvature="0"
             id="path3763-7-8"
             d="m 463.71941,400.7041 0,121.1733"
             style="fill:#008000;fill-opacity:1;fill-rule:nonzero;stroke:#274b19;stroke-width:7.51980972;stroke-linecap:round;stroke-linejoin:round;stroke-miterlimit:4;stroke-dasharray:none;stroke-dashoffset:0;stroke-opacity:0.79211468" />
          <path
             inkscape:connector-curvature="0"
             id="path3763-2-6"
             d="m 527.46938,402.13268 0,121.17329"
             style="fill:#008000;fill-opacity:1;fill-rule:nonzero;stroke:#274b19;stroke-width:7.51980972;stroke-linecap:round;stroke-linejoin:round;stroke-miterlimit:4;stroke-dasharray:none;stroke-dashoffset:0;stroke-opacity:0.79211468" />
          <path
             inkscape:connector-curvature="0"
             id="path3763-6-4"
             d="m 591.21938,402.84696 0,121.1733"
             style="fill:#008000;fill-opacity:1;fill-rule:nonzero;stroke:#274b19;stroke-width:7.51980972;stroke-linecap:round;stroke-linejoin:round;stroke-miterlimit:4;stroke-dasharray:none;stroke-dashoffset:0;stroke-opacity:0.79211468" />
        </g>
        <g
           style="font-style:normal;font-variant:normal;font-weight:normal;font-stretch:normal;font-size:72px;line-height:100%;font-family:'Veteran Typewriter';-inkscape-font-specification:'Veteran Typewriter';text-align:center;writing-mode:lr-tb;text-anchor:middle;fill:#1a1a1a;fill-opacity:1;fill-rule:nonzero;stroke:none"
           id="text3884-4-9"
           transform="matrix(0.99839151,0.0566955,-0.0566955,0.99839151,26.574266,9.1304999)">
          <path
             d="m 305.27649,489.88135 1.40625,0.3164 0.31641,-0.3164 0.35156,0 c 1.10154,5e-5 2.49607,0.69145 4.18359,2.07422 l -0.35156,0.35156 0,0.35156 0.35156,0.35156 -1.05469,0.31641 0.70313,1.05469 -0.35156,0.35156 0,0.35156 c 0.93747,5e-5 1.40622,0.45708 1.40625,1.3711 l 0.35156,0 c 0.67966,4e-5 1.72263,-0.45699 3.12891,-1.3711 2.29684,3.07036 3.44528,5.15629 3.44531,6.25782 -3e-5,0.46878 -0.33988,0.70316 -1.01953,0.70312 l 1.01953,2.77734 0.35156,0 0.35156,-0.35156 0.35157,0 c 0.86715,1.73441 1.45309,4.51175 1.75781,8.33203 l -0.70313,5.20313 0.35157,0.35156 c -4e-5,4.17189 -2.08597,9.73829 -6.25782,16.69922 l -2.10937,2.07422 -1.72266,-0.35156 -2.07422,2.42578 -0.35156,-0.35157 -0.35156,0.35157 -5.90625,0 -4.1836,-0.66797 0,0.66797 -0.35156,0 -6.25781,-6.57422 1.05469,-1.75781 c -0.75001,0 -1.20704,-0.80859 -1.3711,-2.42579 l -0.35156,0.35157 -0.35156,0 c -0.65626,1e-5 -1.24219,-1.04296 -1.75781,-3.12891 l 1.40625,-1.75781 c -0.77344,-1.54686 -1.81641,-2.81248 -3.12891,-3.79688 l -0.35156,-3.83203 0,-0.35156 c 0.60937,-8.34372 1.41796,-12.51559 2.42578,-12.51563 l -0.35156,-1.72265 c 6.16405,-7.19527 10.80467,-10.79292 13.92187,-10.79297 l 1.37109,0 c -10e-6,-0.67964 0.23436,-1.01948 0.70313,-1.01953 m 7.98047,3.1289 0.35156,0 c 1.05466,0.44536 1.6406,0.90239 1.75781,1.3711 l 0,0.35156 -0.35156,0 -1.75781,-1.72266 m -21.86719,22.92188 0,0.35156 0.66797,0.70313 -0.31641,0.35156 0,1.37109 1.01953,-0.70312 2.77735,8.36719 0,0.3164 -0.70313,0 0,0.70313 c 0.72656,1e-5 1.42968,0.58595 2.10938,1.75781 l 0,0.35156 -0.35156,0 c -1.38282,-0.91405 -2.07423,-1.73436 -2.07422,-2.46094 l -0.70313,0.70313 c 0.46874,10e-6 1.39453,0.69142 2.77735,2.07422 l 1.05468,-0.31641 3.79688,3.44531 0.70312,-0.66796 1.75782,0.35156 2.77734,0 c 1.31248,10e-6 2.92966,-1.16015 4.85156,-3.48047 0.96091,10e-6 1.65232,-0.58593 2.07422,-1.75781 -3e-5,-0.46874 0.35154,-0.70312 1.05469,-0.70313 l -0.70313,-1.37109 2.42578,-7.3125 c 1.17185,-0.30467 1.75779,-1.11326 1.75782,-2.42578 -1.38285,2e-5 -2.07425,-2.32029 -2.07422,-6.96094 -3e-5,-0.44528 0.33981,-0.66794 1.01953,-0.66797 l 0,-1.05469 c -0.91409,4e-5 -1.37112,-0.69137 -1.37109,-2.07422 l -0.35157,0.35157 -0.70312,0 c -1.07815,-3.3984 -3.16409,-6.07028 -6.25781,-8.01563 l -2.77735,-0.35156 -3.48047,0 c -2.83595,4e-5 -5.61329,3.93754 -8.33203,11.8125 0,3.53909 -0.8086,5.97659 -2.42578,7.3125 m 2.07422,13.21875 0,0.35156 1.05469,0.66797 0,-0.35156 -1.05469,-0.66797"
             id="path3137"
             inkscape:connector-curvature="0"
             style="fill:#1a1a1a" />
        </g>
        <g
           style="font-style:normal;font-variant:normal;font-weight:normal;font-stretch:normal;font-size:72px;line-height:100%;font-family:'Veteran Typewriter';-inkscape-font-specification:'Veteran Typewriter';text-align:center;writing-mode:lr-tb;text-anchor:middle;fill:#1a1a1a;fill-opacity:1;fill-rule:nonzero;stroke:none"
           id="text3884-0-9"
           transform="matrix(0.99839151,0.0566955,-0.0566955,0.99839151,26.574266,9.1304999)">
          <path
             d="m 431.21362,489.88135 1.40625,0.3164 0.31641,-0.3164 0.35156,0 c 1.10154,5e-5 2.49607,0.69145 4.1836,2.07422 l -0.35157,0.35156 0,0.35156 0.35157,0.35156 -1.05469,0.31641 0.70312,1.05469 -0.35156,0.35156 0,0.35156 c 0.93748,5e-5 1.40623,0.45708 1.40625,1.3711 l 0.35156,0 c 0.67966,4e-5 1.72263,-0.45699 3.12891,-1.3711 2.29684,3.07036 3.44528,5.15629 3.44531,6.25782 -3e-5,0.46878 -0.33987,0.70316 -1.01953,0.70312 l 1.01953,2.77734 0.35156,0 0.35157,-0.35156 0.35156,0 c 0.86715,1.73441 1.45309,4.51175 1.75781,8.33203 l -0.70312,5.20313 0.35156,0.35156 c -4e-5,4.17189 -2.08597,9.73829 -6.25781,16.69922 l -2.10938,2.07422 -1.72265,-0.35156 -2.07422,2.42578 -0.35157,-0.35157 -0.35156,0.35157 -5.90625,0 -4.18359,-0.66797 0,0.66797 -0.35156,0 -6.25782,-6.57422 1.05469,-1.75781 c -0.75,0 -1.20704,-0.80859 -1.37109,-2.42579 l -0.35157,0.35157 -0.35156,0 c -0.65625,1e-5 -1.24219,-1.04296 -1.75781,-3.12891 l 1.40625,-1.75781 c -0.77344,-1.54686 -1.81641,-2.81248 -3.12891,-3.79688 l -0.35156,-3.83203 0,-0.35156 c 0.60937,-8.34372 1.41797,-12.51559 2.42578,-12.51563 l -0.35156,-1.72265 c 6.16405,-7.19527 10.80467,-10.79292 13.92187,-10.79297 l 1.3711,0 c -2e-5,-0.67964 0.23436,-1.01948 0.70312,-1.01953 m 7.98047,3.1289 0.35156,0 c 1.05466,0.44536 1.6406,0.90239 1.75782,1.3711 l 0,0.35156 -0.35157,0 -1.75781,-1.72266 m -21.86719,22.92188 0,0.35156 0.66797,0.70313 -0.3164,0.35156 0,1.37109 1.01953,-0.70312 2.77734,8.36719 0,0.3164 -0.70312,0 0,0.70313 c 0.72655,1e-5 1.42968,0.58595 2.10937,1.75781 l 0,0.35156 -0.35156,0 c -1.38282,-0.91405 -2.07423,-1.73436 -2.07422,-2.46094 l -0.70312,0.70313 c 0.46874,10e-6 1.39452,0.69142 2.77734,2.07422 l 1.05469,-0.31641 3.79687,3.44531 0.70313,-0.66796 1.75781,0.35156 2.77734,0 c 1.31248,10e-6 2.92967,-1.16015 4.85157,-3.48047 0.96091,10e-6 1.65231,-0.58593 2.07421,-1.75781 -2e-5,-0.46874 0.35154,-0.70312 1.05469,-0.70313 l -0.70312,-1.37109 2.42578,-7.3125 c 1.17184,-0.30467 1.75778,-1.11326 1.75781,-2.42578 -1.38284,2e-5 -2.07425,-2.32029 -2.07422,-6.96094 -3e-5,-0.44528 0.33982,-0.66794 1.01953,-0.66797 l 0,-1.05469 c -0.91409,4e-5 -1.37112,-0.69137 -1.37109,-2.07422 l -0.35156,0.35157 -0.70313,0 c -1.07815,-3.3984 -3.16408,-6.07028 -6.25781,-8.01563 l -2.77734,-0.35156 -3.48047,0 c -2.83595,4e-5 -5.61329,3.93754 -8.33203,11.8125 -10e-6,3.53909 -0.8086,5.97659 -2.42579,7.3125 m 2.07422,13.21875 0,0.35156 1.05469,0.66797 0,-0.35156 -1.05469,-0.66797"
             id="path3140"
             inkscape:connector-curvature="0"
             style="fill:#1a1a1a" />
        </g>
        <g
           style="font-style:normal;font-variant:normal;font-weight:normal;font-stretch:normal;font-size:72px;line-height:100%;font-family:'Veteran Typewriter';-inkscape-font-specification:'Veteran Typewriter';text-align:center;writing-mode:lr-tb;text-anchor:middle;fill:#1a1a1a;fill-opacity:1;fill-rule:nonzero;stroke:none"
           id="text3884-5-0"
           transform="matrix(0.99839151,0.0566955,-0.0566955,0.99839151,26.574266,9.1304999)">
          <path
             d="m 487.01028,490.51416 4.5,0 c 0.46874,5e-5 0.70311,0.35161 0.70313,1.05469 l 0.70312,0 0.70313,-0.70313 c 2.29686,1.12505 3.44529,3.0938 3.44531,5.90625 -2e-5,0.8438 -1.03127,2.35551 -3.09375,4.53516 l 0,0.70312 1.3711,0.35157 1.05468,-1.05469 0.35157,0 -0.35157,1.37109 0.35157,2.8125 -0.35157,16.66407 -0.35156,0.35156 -0.35156,0 0,-1.05469 -1.05469,0 c 1.40623,1.4297 2.10936,2.70705 2.10938,3.83203 l -0.35157,0.35156 -0.35156,0 0.35156,0.35157 0,0.70312 c -2e-5,0.3047 -1.74611,0.87892 -5.23828,1.72266 l -0.3164,0.35156 -0.35157,-0.35156 0,-0.35156 0.35157,-0.35157 -0.35157,-0.35156 0,-0.66797 0.35157,-0.35156 -0.35157,-0.35156 0,-1.05469 c 1.85155,-1.54686 2.77733,-3.04686 2.77735,-4.5 -0.58596,2e-5 -1.39455,-0.46873 -2.42578,-1.40625 l 0.3164,-5.20313 0,-3.48046 -0.3164,-9.38672 2.07421,-1.72266 -1.40625,0 0,1.01953 c -1.33595,-0.74996 -2.26173,-1.55855 -2.77734,-2.42578 l 0,-0.35156 0.35156,0 1.75782,1.40625 0,-0.70313 -1.05469,-1.05468 -2.42578,0.35156 -1.75782,0 -0.35156,-0.35156 -0.35156,0.35156 -2.77734,0 c -3.00001,4e-5 -4.5,-1.04293 -4.5,-3.12891 l 0,-0.35156 0.70312,-0.66797 -0.35156,-0.35156 0.35156,-0.35156 0.35156,0 0.31641,0.35156 c 0,-0.63277 0.58593,-1.2187 1.75781,-1.75781 l 3.48047,2.10937 0,-1.40625 0.66797,0 0.35156,0.35156 0.35156,0 1.40625,-1.75781 m 7.27735,32.69531 0,1.01953 1.40625,0 -1.05469,-1.01953 -0.35156,0 m -0.66797,5.20313 0,0.70312 0.35156,-0.35156 0.31641,0 0.35156,0.35156 0,0.35157 c -0.58595,0.67969 -1.16017,1.01954 -1.72266,1.01953 l 0,0.35156 0.35157,0 3.1289,-0.70313 c -2e-5,1.4297 0.80858,2.58986 2.42578,3.48047 l 6.96094,0 2.42578,-0.35156 c 0.39841,1.17188 0.97263,1.75782 1.72266,1.75781 -0.46878,3 -1.85159,4.5 -4.14844,4.5 l -6.96094,-0.35156 -3.1289,0.70313 -5.90625,0 -2.77735,0.70312 -0.35156,0 c -6.25781,-1.03125 -9.38672,-1.95703 -9.38672,-2.77734 l 0,-1.40625 2.77735,-2.77735 2.07422,0.35157 1.05468,-1.01954 6.25782,0.31641 c 0.32811,-1.03124 1.37108,-1.83983 3.1289,-2.42578 l 0.70313,-1.72266 -0.35157,-0.35156 0.35157,-0.35156 0.35156,0"
             id="path3143"
             inkscape:connector-curvature="0"
             style="fill:#1a1a1a" />
        </g>
        <g
           style="font-style:normal;font-variant:normal;font-weight:normal;font-stretch:normal;font-size:72px;line-height:100%;font-family:'Veteran Typewriter';-inkscape-font-specification:'Veteran Typewriter';text-align:center;writing-mode:lr-tb;text-anchor:middle;fill:#1a1a1a;fill-opacity:1;fill-rule:nonzero;stroke:none"
           id="text3884-3-1"
           transform="matrix(0.99839151,0.0566955,-0.0566955,0.99839151,26.574266,9.1304999)">
          <path
             d="m 557.15076,489.88135 1.40625,0.3164 0.3164,-0.3164 0.35157,0 c 1.10154,5e-5 2.49607,0.69145 4.18359,2.07422 l -0.35156,0.35156 0,0.35156 0.35156,0.35156 -1.05469,0.31641 0.70313,1.05469 -0.35157,0.35156 0,0.35156 c 0.93748,5e-5 1.40623,0.45708 1.40625,1.3711 l 0.35157,0 c 0.67966,4e-5 1.72263,-0.45699 3.1289,-1.3711 2.29685,3.07036 3.44528,5.15629 3.44532,6.25782 -4e-5,0.46878 -0.33988,0.70316 -1.01954,0.70312 l 1.01954,2.77734 0.35156,0 0.35156,-0.35156 0.35156,0 c 0.86716,1.73441 1.45309,4.51175 1.75782,8.33203 l -0.70313,5.20313 0.35156,0.35156 c -3e-5,4.17189 -2.08597,9.73829 -6.25781,16.69922 l -2.10937,2.07422 -1.72266,-0.35156 -2.07422,2.42578 -0.35156,-0.35157 -0.35156,0.35157 -5.90625,0 -4.1836,-0.66797 0,0.66797 -0.35156,0 -6.25781,-6.57422 1.05468,-1.75781 c -0.75,0 -1.20703,-0.80859 -1.37109,-2.42579 l -0.35156,0.35157 -0.35156,0 c -0.65626,1e-5 -1.24219,-1.04296 -1.75782,-3.12891 l 1.40625,-1.75781 c -0.77344,-1.54686 -1.8164,-2.81248 -3.1289,-3.79688 l -0.35157,-3.83203 0,-0.35156 c 0.60938,-8.34372 1.41797,-12.51559 2.42579,-12.51563 l -0.35157,-1.72265 c 6.16406,-7.19527 10.80468,-10.79292 13.92188,-10.79297 l 1.37109,0 c -2e-5,-0.67964 0.23436,-1.01948 0.70313,-1.01953 m 7.98047,3.1289 0.35156,0 c 1.05466,0.44536 1.6406,0.90239 1.75781,1.3711 l 0,0.35156 -0.35156,0 -1.75781,-1.72266 m -21.86719,22.92188 0,0.35156 0.66797,0.70313 -0.31641,0.35156 0,1.37109 1.01953,-0.70312 2.77735,8.36719 0,0.3164 -0.70313,0 0,0.70313 c 0.72655,1e-5 1.42968,0.58595 2.10938,1.75781 l 0,0.35156 -0.35157,0 c -1.38282,-0.91405 -2.07422,-1.73436 -2.07422,-2.46094 l -0.70312,0.70313 c 0.46874,10e-6 1.39452,0.69142 2.77734,2.07422 l 1.05469,-0.31641 3.79688,3.44531 0.70312,-0.66796 1.75781,0.35156 2.77735,0 c 1.31248,10e-6 2.92966,-1.16015 4.85156,-3.48047 0.96091,10e-6 1.65232,-0.58593 2.07422,-1.75781 -3e-5,-0.46874 0.35153,-0.70312 1.05469,-0.70313 l -0.70313,-1.37109 2.42578,-7.3125 c 1.17185,-0.30467 1.75778,-1.11326 1.75781,-2.42578 -1.38284,2e-5 -2.07424,-2.32029 -2.07421,-6.96094 -3e-5,-0.44528 0.33981,-0.66794 1.01953,-0.66797 l 0,-1.05469 c -0.91409,4e-5 -1.37113,-0.69137 -1.3711,-2.07422 l -0.35156,0.35157 -0.70312,0 c -1.07816,-3.3984 -3.16409,-6.07028 -6.25782,-8.01563 l -2.77734,-0.35156 -3.48047,0 c -2.83595,4e-5 -5.61329,3.93754 -8.33203,11.8125 -1e-5,3.53909 -0.8086,5.97659 -2.42578,7.3125 m 2.07422,13.21875 0,0.35156 1.05468,0.66797 0,-0.35156 -1.05468,-0.66797"
             id="path3146"
             inkscape:connector-curvature="0"
             style="fill:#1a1a1a" />
        </g>
        <g
           style="font-style:normal;font-variant:normal;font-weight:normal;font-stretch:normal;font-size:72px;line-height:100%;font-family:'Veteran Typewriter';-inkscape-font-specification:'Veteran Typewriter';text-align:center;writing-mode:lr-tb;text-anchor:middle;fill:#1a1a1a;fill-opacity:1;fill-rule:nonzero;stroke:none"
           id="text3884-49-8"
           transform="matrix(0.99839151,0.0566955,-0.0566955,0.99839151,26.574266,9.1304999)">
          <path
             d="m 620.11926,489.88135 1.40625,0.3164 0.31641,-0.3164 0.35156,0 c 1.10154,5e-5 2.49607,0.69145 4.1836,2.07422 l -0.35157,0.35156 0,0.35156 0.35157,0.35156 -1.05469,0.31641 0.70312,1.05469 -0.35156,0.35156 0,0.35156 c 0.93748,5e-5 1.40623,0.45708 1.40625,1.3711 l 0.35156,0 c 0.67966,4e-5 1.72263,-0.45699 3.12891,-1.3711 2.29684,3.07036 3.44528,5.15629 3.44531,6.25782 -3e-5,0.46878 -0.33987,0.70316 -1.01953,0.70312 l 1.01953,2.77734 0.35156,0 0.35157,-0.35156 0.35156,0 c 0.86715,1.73441 1.45309,4.51175 1.75781,8.33203 l -0.70312,5.20313 0.35156,0.35156 c -4e-5,4.17189 -2.08597,9.73829 -6.25781,16.69922 l -2.10938,2.07422 -1.72265,-0.35156 -2.07422,2.42578 -0.35157,-0.35157 -0.35156,0.35157 -5.90625,0 -4.18359,-0.66797 0,0.66797 -0.35156,0 -6.25782,-6.57422 1.05469,-1.75781 c -0.75,0 -1.20704,-0.80859 -1.37109,-2.42579 l -0.35157,0.35157 -0.35156,0 c -0.65625,1e-5 -1.24219,-1.04296 -1.75781,-3.12891 l 1.40625,-1.75781 c -0.77344,-1.54686 -1.81641,-2.81248 -3.12891,-3.79688 l -0.35156,-3.83203 0,-0.35156 c 0.60937,-8.34372 1.41797,-12.51559 2.42578,-12.51563 l -0.35156,-1.72265 c 6.16405,-7.19527 10.80467,-10.79292 13.92187,-10.79297 l 1.3711,0 c -2e-5,-0.67964 0.23436,-1.01948 0.70312,-1.01953 m 7.98047,3.1289 0.35156,0 c 1.05466,0.44536 1.6406,0.90239 1.75782,1.3711 l 0,0.35156 -0.35157,0 -1.75781,-1.72266 m -21.86719,22.92188 0,0.35156 0.66797,0.70313 -0.3164,0.35156 0,1.37109 1.01953,-0.70312 2.77734,8.36719 0,0.3164 -0.70312,0 0,0.70313 c 0.72655,1e-5 1.42967,0.58595 2.10937,1.75781 l 0,0.35156 -0.35156,0 c -1.38282,-0.91405 -2.07423,-1.73436 -2.07422,-2.46094 l -0.70312,0.70313 c 0.46874,10e-6 1.39452,0.69142 2.77734,2.07422 l 1.05469,-0.31641 3.79687,3.44531 0.70313,-0.66796 1.75781,0.35156 2.77734,0 c 1.31248,10e-6 2.92967,-1.16015 4.85157,-3.48047 0.96091,10e-6 1.65231,-0.58593 2.07421,-1.75781 -2e-5,-0.46874 0.35154,-0.70312 1.05469,-0.70313 l -0.70312,-1.37109 2.42578,-7.3125 c 1.17184,-0.30467 1.75778,-1.11326 1.75781,-2.42578 -1.38284,2e-5 -2.07425,-2.32029 -2.07422,-6.96094 -3e-5,-0.44528 0.33982,-0.66794 1.01953,-0.66797 l 0,-1.05469 c -0.91409,4e-5 -1.37112,-0.69137 -1.37109,-2.07422 l -0.35156,0.35157 -0.70313,0 c -1.07815,-3.3984 -3.16409,-6.07028 -6.25781,-8.01563 l -2.77734,-0.35156 -3.48047,0 c -2.83595,4e-5 -5.61329,3.93754 -8.33203,11.8125 -10e-6,3.53909 -0.8086,5.97659 -2.42579,7.3125 m 2.07422,13.21875 0,0.35156 1.05469,0.66797 0,-0.35156 -1.05469,-0.66797"
             id="path3149"
             inkscape:connector-curvature="0"
             style="fill:#1a1a1a" />
        </g>
        <g
           style="font-style:normal;font-variant:normal;font-weight:normal;font-stretch:normal;font-size:72px;line-height:100%;font-family:'Veteran Typewriter';-inkscape-font-specification:'Veteran Typewriter';text-align:center;writing-mode:lr-tb;text-anchor:middle;fill:#1a1a1a;fill-opacity:1;fill-rule:nonzero;stroke:none"
           id="text3884-39-0"
           transform="matrix(0.99839151,0.0566955,-0.0566955,0.99839151,26.574266,9.1304999)">
          <path
             d="m 235.03059,490.51416 4.5,0 c 0.46874,5e-5 0.70311,0.35161 0.70313,1.05469 l 0.70312,0 0.70313,-0.70313 c 2.29686,1.12505 3.44529,3.0938 3.44531,5.90625 -2e-5,0.8438 -1.03127,2.35551 -3.09375,4.53516 l 0,0.70312 1.3711,0.35157 1.05468,-1.05469 0.35157,0 -0.35157,1.37109 0.35157,2.8125 -0.35157,16.66407 -0.35156,0.35156 -0.35156,0 0,-1.05469 -1.05469,0 c 1.40623,1.4297 2.10936,2.70705 2.10938,3.83203 l -0.35157,0.35156 -0.35156,0 0.35156,0.35157 0,0.70312 c -2e-5,0.3047 -1.74611,0.87892 -5.23828,1.72266 l -0.3164,0.35156 -0.35157,-0.35156 0,-0.35156 0.35157,-0.35157 -0.35157,-0.35156 0,-0.66797 0.35157,-0.35156 -0.35157,-0.35156 0,-1.05469 c 1.85155,-1.54686 2.77733,-3.04686 2.77735,-4.5 -0.58596,2e-5 -1.39455,-0.46873 -2.42578,-1.40625 l 0.3164,-5.20313 0,-3.48046 -0.3164,-9.38672 2.07421,-1.72266 -1.40625,0 0,1.01953 c -1.33595,-0.74996 -2.26173,-1.55855 -2.77734,-2.42578 l 0,-0.35156 0.35156,0 1.75782,1.40625 0,-0.70313 -1.05469,-1.05468 -2.42578,0.35156 -1.75782,0 -0.35156,-0.35156 -0.35156,0.35156 -2.77734,0 c -3.00001,4e-5 -4.50001,-1.04293 -4.5,-3.12891 l 0,-0.35156 0.70312,-0.66797 -0.35156,-0.35156 0.35156,-0.35156 0.35156,0 0.31641,0.35156 c 0,-0.63277 0.58593,-1.2187 1.75781,-1.75781 l 3.48047,2.10937 0,-1.40625 0.66797,0 0.35156,0.35156 0.35156,0 1.40625,-1.75781 m 7.27735,32.69531 0,1.01953 1.40625,0 -1.05469,-1.01953 -0.35156,0 m -0.66797,5.20313 0,0.70312 0.35156,-0.35156 0.31641,0 0.35156,0.35156 0,0.35157 c -0.58595,0.67969 -1.16017,1.01954 -1.72266,1.01953 l 0,0.35156 0.35157,0 3.1289,-0.70313 c -2e-5,1.4297 0.80858,2.58986 2.42578,3.48047 l 6.96094,0 2.42578,-0.35156 c 0.39841,1.17188 0.97263,1.75782 1.72266,1.75781 -0.46878,3 -1.85159,4.5 -4.14844,4.5 l -6.96094,-0.35156 -3.1289,0.70313 -5.90625,0 -2.77735,0.70312 -0.35156,0 c -6.25781,-1.03125 -9.38672,-1.95703 -9.38672,-2.77734 l 0,-1.40625 2.77735,-2.77735 2.07422,0.35157 1.05468,-1.01954 6.25782,0.31641 c 0.32811,-1.03124 1.37108,-1.83983 3.1289,-2.42578 l 0.70313,-1.72266 -0.35157,-0.35156 0.35157,-0.35156 0.35156,0"
             id="path3152"
             inkscape:connector-curvature="0"
             style="fill:#1a1a1a" />
        </g>
        <g
           style="font-style:normal;font-variant:normal;font-weight:normal;font-stretch:normal;font-size:72px;line-height:100%;font-family:'Veteran Typewriter';-inkscape-font-specification:'Veteran Typewriter';text-align:center;writing-mode:lr-tb;text-anchor:middle;fill:#1a1a1a;fill-opacity:1;fill-rule:nonzero;stroke:none"
           id="text3884-39-4-9"
           transform="matrix(0.99839151,0.0566955,-0.0566955,0.99839151,26.574266,9.1304999)">
          <path
             d="m 368.13959,489.88135 1.40625,0.3164 0.3164,-0.3164 0.35157,0 c 1.10154,5e-5 2.49607,0.69145 4.18359,2.07422 l -0.35156,0.35156 0,0.35156 0.35156,0.35156 -1.05469,0.31641 0.70313,1.05469 -0.35157,0.35156 0,0.35156 c 0.93748,5e-5 1.40623,0.45708 1.40625,1.3711 l 0.35157,0 c 0.67966,4e-5 1.72263,-0.45699 3.1289,-1.3711 2.29685,3.07036 3.44528,5.15629 3.44532,6.25782 -4e-5,0.46878 -0.33988,0.70316 -1.01954,0.70312 l 1.01954,2.77734 0.35156,0 0.35156,-0.35156 0.35156,0 c 0.86716,1.73441 1.45309,4.51175 1.75782,8.33203 l -0.70313,5.20313 0.35156,0.35156 c -3e-5,4.17189 -2.08597,9.73829 -6.25781,16.69922 l -2.10937,2.07422 -1.72266,-0.35156 -2.07422,2.42578 -0.35156,-0.35157 -0.35156,0.35157 -5.90625,0 -4.1836,-0.66797 0,0.66797 -0.35156,0 -6.25781,-6.57422 1.05468,-1.75781 c -0.75,0 -1.20703,-0.80859 -1.37109,-2.42579 l -0.35156,0.35157 -0.35156,0 c -0.65626,1e-5 -1.24219,-1.04296 -1.75782,-3.12891 l 1.40625,-1.75781 c -0.77344,-1.54686 -1.8164,-2.81248 -3.1289,-3.79688 l -0.35157,-3.83203 0,-0.35156 c 0.60938,-8.34372 1.41797,-12.51559 2.42579,-12.51563 l -0.35157,-1.72265 c 6.16406,-7.19527 10.80468,-10.79292 13.92188,-10.79297 l 1.37109,0 c -1e-5,-0.67964 0.23436,-1.01948 0.70313,-1.01953 m 7.98047,3.1289 0.35156,0 c 1.05466,0.44536 1.6406,0.90239 1.75781,1.3711 l 0,0.35156 -0.35156,0 -1.75781,-1.72266 m -21.86719,22.92188 0,0.35156 0.66797,0.70313 -0.31641,0.35156 0,1.37109 1.01953,-0.70312 2.77735,8.36719 0,0.3164 -0.70313,0 0,0.70313 c 0.72656,1e-5 1.42968,0.58595 2.10938,1.75781 l 0,0.35156 -0.35157,0 c -1.38282,-0.91405 -2.07422,-1.73436 -2.07422,-2.46094 l -0.70312,0.70313 c 0.46874,10e-6 1.39452,0.69142 2.77734,2.07422 l 1.05469,-0.31641 3.79688,3.44531 0.70312,-0.66796 1.75781,0.35156 2.77735,0 c 1.31248,10e-6 2.92966,-1.16015 4.85156,-3.48047 0.96091,10e-6 1.65232,-0.58593 2.07422,-1.75781 -3e-5,-0.46874 0.35153,-0.70312 1.05469,-0.70313 l -0.70313,-1.37109 2.42578,-7.3125 c 1.17185,-0.30467 1.75778,-1.11326 1.75781,-2.42578 -1.38284,2e-5 -2.07424,-2.32029 -2.07421,-6.96094 -3e-5,-0.44528 0.33981,-0.66794 1.01953,-0.66797 l 0,-1.05469 c -0.91409,4e-5 -1.37112,-0.69137 -1.3711,-2.07422 l -0.35156,0.35157 -0.70312,0 c -1.07816,-3.3984 -3.16409,-6.07028 -6.25782,-8.01563 l -2.77734,-0.35156 -3.48047,0 c -2.83595,4e-5 -5.61329,3.93754 -8.33203,11.8125 -1e-5,3.53909 -0.8086,5.97659 -2.42578,7.3125 m 2.07422,13.21875 0,0.35156 1.05468,0.66797 0,-0.35156 -1.05468,-0.66797"
             id="path3155"
             inkscape:connector-curvature="0"
             style="fill:#1a1a1a" />
        </g>
        <g
           style="font-style:normal;font-variant:normal;font-weight:normal;font-stretch:normal;font-size:72px;line-height:100%;font-family:'Veteran Typewriter';-inkscape-font-specification:'Veteran Typewriter';text-align:center;writing-mode:lr-tb;text-anchor:middle;fill:#005500;fill-opacity:1;fill-rule:nonzero;stroke:none"
           id="text4615"
           transform="matrix(0.99839151,0.0566955,-0.0566955,0.99839151,26.574266,9.1304999)">
          <path
             d="m 170.87982,489.88135 1.3711,1.37109 1.72265,-0.35156 2.42578,0 1.05469,0.70312 0.35156,-0.35156 0.31641,0.35156 c -3e-5,0.70318 -0.57424,1.05474 -1.72266,1.05469 l 0,0.31641 5.20313,1.75781 0.66797,-1.05469 0.35156,0.35157 0.35156,0 1.3711,-1.05469 c 1.28903,4e-5 3.36324,2.07426 6.22265,6.22265 -4e-5,0.46879 -0.33988,0.70317 -1.01953,0.70313 l 0,0.70312 0.66797,2.07422 1.05469,-0.70312 c 1.38277,2.29691 2.07418,5.29691 2.07422,9 l 0,1.72265 c -0.16411,7.3594 -0.85551,11.03908 -2.07422,11.03907 l 0.35156,1.72265 c -0.93754,4.31251 -2.43754,7.54688 -4.5,9.70313 -2.25003,2.97656 -9.85549,4.46484 -22.81641,4.46484 -1e-5,0.46875 -1.38282,0.70313 -4.14843,0.70313 l -2.07422,0 -1.3711,-0.35157 -1.05468,0.35157 0.35156,-0.35157 0,-0.35156 c -0.91407,-0.21094 -2.0625,-1.00781 -3.44531,-2.39062 l 0,-0.35157 0.35156,0.35157 0.66797,0 c 0,-1.17187 0.23437,-1.75781 0.70312,-1.75782 l 0.35156,0.35157 c 0.1875,-1.14844 1.11328,-1.72265 2.77735,-1.72266 l 3.09375,0.35156 c 1.66405,-0.84374 2.81249,-2.46093 3.44531,-4.85156 1.1953,1e-5 1.88671,-0.33983 2.07422,-1.01953 l 0,-0.35156 -0.66797,0 0.66797,-2.07422 -0.66797,0 -1.40625,1.05469 -0.31641,-0.35157 0,-1.72265 0.31641,-0.35157 0,-0.35156 -0.31641,-0.35156 -0.35156,0 0.35156,-1.72266 0,-7.59375 -0.35156,-13.5 0.35156,-1.37109 c -0.46876,4e-5 -1.39454,-0.69137 -2.77734,-2.07422 -3.91407,4e-5 -5.87109,-0.3398 -5.87109,-1.01953 0.91406,-1.12496 1.37109,-2.05074 1.37109,-2.77734 l -0.35156,-0.35157 0,-0.35156 0.35156,-1.72266 -0.35156,-1.01953 1.40625,0 1.37109,-0.35156 c 1.14843,0.23442 1.72265,0.69146 1.72266,1.37109 l 5.87109,0 1.72266,-1.37109 0.35156,0 1.37109,1.01953 c 0.11718,-0.91401 0.46874,-1.37104 1.05469,-1.37109 m 4.85156,5.51953 0,0.70312 0.66797,1.01954 0,0.35156 -5.16797,0 c -1e-5,0.93754 -0.57423,1.51176 -1.72265,1.72265 l 0,8.64844 -1.05469,1.3711 c 0.70311,0.2344 1.05467,0.92581 1.05469,2.07421 l 0,9.35157 -0.35156,0.35156 0.35156,0.31641 0,0.70312 -1.75781,1.72266 0.35156,1.72265 0,0.35157 -0.66797,1.05468 0.66797,0.66797 1.05469,-1.01953 0.35156,0.35156 -0.35156,2.39063 0.35156,2.42578 -0.35156,0 c -2e-5,0.63282 0.91404,1.5586 2.74218,2.77734 l 3.12891,0 c 4.92185,10e-6 8.26169,-1.49999 10.01953,-4.5 -3e-5,-1.52342 0.69137,-3.8203 2.07422,-6.89062 l 0.35156,0 -0.35156,-0.35156 0.70312,-11.07422 c -3e-5,-2.3906 -0.2344,-4.23044 -0.70312,-5.51953 l 0.70312,-0.70313 0,-0.35156 c -3.77346,-4.59371 -7.00784,-6.89059 -9.70312,-6.89063 l 0,-0.70312 0.70312,0 0,-0.35156 c -2e-5,-0.51559 -1.03127,-1.0898 -3.09375,-1.72266"
             id="path3158"
             inkscape:connector-curvature="0" />
        </g>
      </g>
      <text
         inkscape:transform-center-y="0.39250473"
         inkscape:transform-center-x="-22.266179"
         transform="matrix(0.99982879,0.01850365,-0.01850365,0.99982879,0,0)"
         sodipodi:linespacing="100%"
         id="text4623"
         y="617.9986"
         x="251.02211"
         style="font-style:normal;font-variant:normal;font-weight:normal;font-stretch:normal;font-size:72px;line-height:100%;font-family:'Veteran Typewriter';-inkscape-font-specification:'Veteran Typewriter';text-align:center;writing-mode:lr-tb;text-anchor:middle;fill:#165016;fill-opacity:1;fill-rule:nonzero;stroke:none"
         xml:space="preserve"><tspan
           style="font-size:56px;fill:#165016"
           y="617.9986"
           x="251.02211"
           id="tspan4625"
           sodipodi:role="line">byte</tspan></text>
      <g
         id="g4273">
        <path
           transform="matrix(0.99272744,-0.16000163,0.10982835,0.68142816,-38.001363,515.99741)"
           style="fill:url(#linearGradient4452);fill-opacity:1;fill-rule:evenodd;stroke:#1a1a1a;stroke-width:7.50350857;stroke-linecap:round;stroke-linejoin:round;stroke-miterlimit:4;stroke-opacity:1;filter:url(#filter3872-6-4)"
           d="m 142.87303,245.21933 510.24268,0 0,125.7143 -510.24268,0 z"
           id="rect2985-0-3"
           inkscape:connector-curvature="0" />
        <text
           xml:space="preserve"
           style="font-style:normal;font-variant:normal;font-weight:normal;font-stretch:normal;font-size:72px;line-height:100%;font-family:'Veteran Typewriter';-inkscape-font-specification:'Veteran Typewriter';text-align:center;writing-mode:lr-tb;text-anchor:middle;fill:#1a1a1a;fill-opacity:1;fill-rule:nonzero;stroke:none"
           x="187.14301"
           y="740.37262"
           id="text3884-4-9-7"
           sodipodi:linespacing="100%"
           transform="matrix(0.98773267,-0.15615432,0.15615432,0.98773267,0,0)"><tspan
             sodipodi:role="line"
             id="tspan3886-6-9-3"
             x="187.14301"
             y="740.37262">0</tspan></text>
        <text
           xml:space="preserve"
           style="font-style:normal;font-variant:normal;font-weight:normal;font-stretch:normal;font-size:72px;line-height:100%;font-family:'Veteran Typewriter';-inkscape-font-specification:'Veteran Typewriter';text-align:center;writing-mode:lr-tb;text-anchor:middle;fill:#1a1a1a;fill-opacity:1;fill-rule:nonzero;stroke:none"
           x="313.08014"
           y="740.37262"
           id="text3884-0-9-0"
           sodipodi:linespacing="100%"
           transform="matrix(0.98773267,-0.15615432,0.15615432,0.98773267,0,0)"><tspan
             sodipodi:role="line"
             id="tspan3886-3-6-7"
             x="313.08014"
             y="740.37262">1</tspan></text>
        <text
           xml:space="preserve"
           style="font-style:normal;font-variant:normal;font-weight:normal;font-stretch:normal;font-size:72px;line-height:100%;font-family:'Veteran Typewriter';-inkscape-font-specification:'Veteran Typewriter';text-align:center;writing-mode:lr-tb;text-anchor:middle;fill:#1a1a1a;fill-opacity:1;fill-rule:nonzero;stroke:none"
           x="376.04865"
           y="740.37262"
           id="text3884-5-0-4"
           sodipodi:linespacing="100%"
           transform="matrix(0.98773267,-0.15615432,0.15615432,0.98773267,0,0)"><tspan
             sodipodi:role="line"
             id="tspan3886-8-8-0"
             x="376.04865"
             y="740.37262">0</tspan></text>
        <text
           xml:space="preserve"
           style="font-style:normal;font-variant:normal;font-weight:normal;font-stretch:normal;font-size:72px;line-height:100%;font-family:'Veteran Typewriter';-inkscape-font-specification:'Veteran Typewriter';text-align:center;writing-mode:lr-tb;text-anchor:middle;fill:#1a1a1a;fill-opacity:1;fill-rule:nonzero;stroke:none"
           x="439.01727"
           y="740.37262"
           id="text3884-3-1-4"
           sodipodi:linespacing="100%"
           transform="matrix(0.98773267,-0.15615432,0.15615432,0.98773267,0,0)"><tspan
             sodipodi:role="line"
             id="tspan3886-2-2-4"
             x="439.01727"
             y="740.37262">0</tspan></text>
        <text
           xml:space="preserve"
           style="font-style:normal;font-variant:normal;font-weight:normal;font-stretch:normal;font-size:72px;line-height:100%;font-family:'Veteran Typewriter';-inkscape-font-specification:'Veteran Typewriter';text-align:center;writing-mode:lr-tb;text-anchor:middle;fill:#1a1a1a;fill-opacity:1;fill-rule:nonzero;stroke:none"
           x="501.98578"
           y="740.37262"
           id="text3884-49-8-2"
           sodipodi:linespacing="100%"
           transform="matrix(0.98773267,-0.15615432,0.15615432,0.98773267,0,0)"><tspan
             sodipodi:role="line"
             id="tspan3886-69-9-1"
             x="501.98578"
             y="740.37262">0</tspan></text>
        <text
           xml:space="preserve"
           style="font-style:normal;font-variant:normal;font-weight:normal;font-stretch:normal;font-size:72px;line-height:100%;font-family:'Veteran Typewriter';-inkscape-font-specification:'Veteran Typewriter';text-align:center;writing-mode:lr-tb;text-anchor:middle;fill:#1a1a1a;fill-opacity:1;fill-rule:nonzero;stroke:none"
           x="124.06897"
           y="740.37262"
           id="text3884-39-0-2"
           sodipodi:linespacing="100%"
           transform="matrix(0.98773267,-0.15615432,0.15615432,0.98773267,0,0)"><tspan
             sodipodi:role="line"
             id="tspan3886-5-7-4"
             x="124.06897"
             y="740.37262">1</tspan></text>
        <g
           id="g4068"
           style="stroke:#143c31;stroke-opacity:0.79211468"
           transform="matrix(0.98773266,-0.15615432,0.10851957,0.68642555,-69.383242,301.91601)">
          <g
             id="g4059"
             style="stroke:#143c31;stroke-opacity:0.79211468">
            <path
               inkscape:connector-curvature="0"
               id="path3763-66-2"
               d="m 205.7143,553.56123 0,121.1733"
               style="fill:#008000;fill-opacity:1;fill-rule:nonzero;stroke:#143c31;stroke-width:7.51980972;stroke-linecap:round;stroke-linejoin:round;stroke-miterlimit:4;stroke-dasharray:none;stroke-dashoffset:0;stroke-opacity:0.79211468" />
            <path
               inkscape:connector-curvature="0"
               id="path3763-9-3-4"
               d="m 333.21428,553.56123 0,121.17329"
               style="fill:#008000;fill-opacity:1;fill-rule:nonzero;stroke:#143c31;stroke-width:7.51980972;stroke-linecap:round;stroke-linejoin:round;stroke-miterlimit:4;stroke-dasharray:none;stroke-dashoffset:0;stroke-opacity:0.79211468" />
            <path
               inkscape:connector-curvature="0"
               id="path3763-3-8-6"
               d="m 269.46428,553.56123 0,121.17329"
               style="fill:#008000;fill-opacity:1;fill-rule:nonzero;stroke:#143c31;stroke-width:7.51980972;stroke-linecap:round;stroke-linejoin:round;stroke-miterlimit:4;stroke-dasharray:none;stroke-dashoffset:0;stroke-opacity:0.79211468" />
            <path
               inkscape:connector-curvature="0"
               id="path3763-99-1-7"
               d="m 396.96428,553.56123 0,121.17329"
               style="fill:#008000;fill-opacity:1;fill-rule:nonzero;stroke:#143c31;stroke-width:7.51980972;stroke-linecap:round;stroke-linejoin:round;stroke-miterlimit:4;stroke-dasharray:none;stroke-dashoffset:0;stroke-opacity:0.79211468" />
            <path
               inkscape:connector-curvature="0"
               id="path3763-7-8-6"
               d="m 460.71428,552.84694 0,121.1733"
               style="fill:#008000;fill-opacity:1;fill-rule:nonzero;stroke:#143c31;stroke-width:7.51980972;stroke-linecap:round;stroke-linejoin:round;stroke-miterlimit:4;stroke-dasharray:none;stroke-dashoffset:0;stroke-opacity:0.79211468" />
            <path
               inkscape:connector-curvature="0"
               id="path3763-2-6-6"
               d="m 524.46425,554.27552 0,121.17329"
               style="fill:#008000;fill-opacity:1;fill-rule:nonzero;stroke:#143c31;stroke-width:7.51980972;stroke-linecap:round;stroke-linejoin:round;stroke-miterlimit:4;stroke-dasharray:none;stroke-dashoffset:0;stroke-opacity:0.79211468" />
            <path
               inkscape:connector-curvature="0"
               id="path3763-6-4-6"
               d="m 588.21425,554.9898 0,121.1733"
               style="fill:#008000;fill-opacity:1;fill-rule:nonzero;stroke:#143c31;stroke-width:7.51980972;stroke-linecap:round;stroke-linejoin:round;stroke-miterlimit:4;stroke-dasharray:none;stroke-dashoffset:0;stroke-opacity:0.79211468" />
          </g>
        </g>
        <text
           xml:space="preserve"
           style="font-style:normal;font-variant:normal;font-weight:normal;font-stretch:normal;font-size:72px;line-height:100%;font-family:'Veteran Typewriter';-inkscape-font-specification:'Veteran Typewriter';text-align:center;writing-mode:lr-tb;text-anchor:middle;fill:#1a1a1a;fill-opacity:1;fill-rule:nonzero;stroke:none"
           x="250.0061"
           y="740.37262"
           id="text3884-39-4-9-1"
           sodipodi:linespacing="100%"
           transform="matrix(0.98773267,-0.15615432,0.15615432,0.98773267,0,0)"><tspan
             sodipodi:role="line"
             id="tspan3886-5-0-0-7"
             x="250.0061"
             y="740.37262">1</tspan></text>
        <text
           xml:space="preserve"
           style="font-style:normal;font-variant:normal;font-weight:normal;font-stretch:normal;font-size:72px;line-height:100%;font-family:'Veteran Typewriter';-inkscape-font-specification:'Veteran Typewriter';text-align:center;writing-mode:lr-tb;text-anchor:middle;fill:#005500;fill-opacity:1;fill-rule:nonzero;stroke:none"
           x="59.916306"
           y="741.38275"
           id="text4619"
           sodipodi:linespacing="100%"
           transform="matrix(0.98773267,-0.15615432,0.15615432,0.98773267,0,0)"><tspan
             sodipodi:role="line"
             id="tspan4621"
             x="59.916306"
             y="741.38275">X</tspan></text>
      </g>
    </g>
  </g>
</svg>
